<svg width="134" height="134" viewBox="0 0 134 134" fill="none" xmlns="http://www.w3.org/2000/svg">
<path d="M98.7001 14.9521H76.6749H41.1282H19.103C14.9522 14.9521 11.575 18.3294 11.575 22.4802V126.472C11.575 130.623 14.9522 134 19.103 134H98.7001C102.851 134 106.228 130.623 106.228 126.472V22.4802C106.228 18.3291 102.851 14.9521 98.7001 14.9521Z" fill="#C46F5F"/>
<path d="M19.9395 126.472V22.4802C19.9395 18.3294 23.3167 14.9521 27.4676 14.9521H19.103C14.9522 14.9521 11.575 18.3294 11.575 22.4802V126.472C11.575 130.623 14.9522 134 19.103 134H27.4676C23.3167 134 19.9395 130.623 19.9395 126.472Z" fill="#B45F4A"/>
<path d="M97.1939 23.3164H76.6761H41.1272H20.6092C20.2394 23.3164 19.9395 23.6163 19.9395 23.9861V124.966C19.9395 125.336 20.2394 125.635 20.6092 125.635H97.1936C97.5634 125.635 97.8633 125.335 97.8633 124.966V23.9861C97.8636 23.6161 97.5637 23.3164 97.1939 23.3164Z" fill="#FFF6E9"/>
<path d="M27.9083 124.966V23.9861C27.9083 23.6161 28.2082 23.3164 28.578 23.3164H20.6092C20.2394 23.3164 19.9395 23.6163 19.9395 23.9861V124.966C19.9395 125.336 20.2394 125.635 20.6092 125.635H28.578C28.2082 125.635 27.9083 125.335 27.9083 124.966Z" fill="#F9E4C7"/>
<path d="M85.7492 49.562H32.054C30.9537 49.562 30.0618 48.6701 30.0618 47.5698C30.0618 46.4696 30.9537 45.5776 32.054 45.5776H85.7492C86.8495 45.5776 87.7414 46.4696 87.7414 47.5698C87.7414 48.6701 86.8495 49.562 85.7492 49.562Z" fill="#F9E4C7"/>
<path d="M85.7492 115.479H32.054C30.9537 115.479 30.0618 114.587 30.0618 113.486C30.0618 112.386 30.9537 111.494 32.054 111.494H85.7492C86.8495 111.494 87.7414 112.386 87.7414 113.486C87.7414 114.587 86.8495 115.479 85.7492 115.479Z" fill="#F9E4C7"/>
<path d="M71.4055 58.9785H32.054C30.9537 58.9785 30.0618 58.0866 30.0618 56.9863C30.0618 55.8861 30.9537 54.9941 32.054 54.9941H71.4055C72.5057 54.9941 73.3977 55.8861 73.3977 56.9863C73.3977 58.0866 72.5057 58.9785 71.4055 58.9785Z" fill="#F9E4C7"/>
<path d="M71.4055 68.3953H32.054C30.9537 68.3953 30.0618 67.5034 30.0618 66.4031C30.0618 65.3028 30.9537 64.4109 32.054 64.4109H71.4055C72.5057 64.4109 73.3977 65.3028 73.3977 66.4031C73.3977 67.5034 72.5057 68.3953 71.4055 68.3953Z" fill="#F9E4C7"/>
<path d="M71.4055 77.812H32.054C30.9537 77.812 30.0618 76.9201 30.0618 75.8198C30.0618 74.7196 30.9537 73.8276 32.054 73.8276H71.4055C72.5057 73.8276 73.3977 74.7196 73.3977 75.8198C73.3977 76.9201 72.5057 77.812 71.4055 77.812Z" fill="#F9E4C7"/>
<path d="M71.4055 87.2288H32.054C30.9537 87.2288 30.0618 86.3369 30.0618 85.2366C30.0618 84.1363 30.9537 83.2444 32.054 83.2444H71.4055C72.5057 83.2444 73.3977 84.1363 73.3977 85.2366C73.3977 86.3369 72.5057 87.2288 71.4055 87.2288Z" fill="#F9E4C7"/>
<path d="M71.4055 96.6453H32.054C30.9537 96.6453 30.0618 95.7534 30.0618 94.6531C30.0618 93.5528 30.9537 92.6609 32.054 92.6609H71.4055C72.5057 92.6609 73.3977 93.5528 73.3977 94.6531C73.3977 95.7534 72.5057 96.6453 71.4055 96.6453Z" fill="#F9E4C7"/>
<path d="M71.4055 106.062H32.054C30.9537 106.062 30.0618 105.17 30.0618 104.07C30.0618 102.97 30.9537 102.078 32.054 102.078H71.4055C72.5057 102.078 73.3977 102.97 73.3977 104.07C73.3977 105.17 72.5057 106.062 71.4055 106.062Z" fill="#F9E4C7"/>
<path d="M65.8022 16.7175C64.702 16.7175 63.81 15.8256 63.81 14.7253V8.89294C63.81 6.18625 61.6082 3.98441 58.9015 3.98441C56.1948 3.98441 53.993 6.18625 53.993 8.89294V14.7253C53.993 15.8256 53.101 16.7175 52.0007 16.7175C50.9005 16.7175 50.0085 15.8256 50.0085 14.7253V8.89294C50.0088 3.98938 53.9979 0 58.9015 0C63.8051 0 67.7944 3.98938 67.7944 8.89294V14.7253C67.7944 15.8256 66.9025 16.7175 65.8022 16.7175Z" fill="#CCD2DB"/>
<path d="M74.567 12.8662H43.2361C42.0762 12.8662 41.1272 13.8152 41.1272 14.9751V24.5585C41.1272 25.7184 42.0762 26.6674 43.2361 26.6674H74.567C75.7269 26.6674 76.6759 25.7184 76.6759 24.5585V14.9751C76.6762 13.8152 75.7272 12.8662 74.567 12.8662Z" fill="#E4EAF8"/>
<path d="M49.096 24.5585V14.9751C49.096 13.8152 50.045 12.8662 51.2049 12.8662H43.2361C42.0762 12.8662 41.1272 13.8152 41.1272 14.9751V24.5585C41.1272 25.7184 42.0762 26.6674 43.2361 26.6674H51.2049C50.045 26.6674 49.096 25.7184 49.096 24.5585Z" fill="#CCD2DB"/>
<path d="M68.5748 21.7588H49.2283C48.128 21.7588 47.2361 20.8669 47.2361 19.7666C47.2361 18.6664 48.128 17.7744 49.2283 17.7744H68.5748C69.6751 17.7744 70.567 18.6664 70.567 19.7666C70.567 20.8669 69.6751 21.7588 68.5748 21.7588Z" fill="#BCC2CC"/>
<path d="M72.3254 40.1453H45.4778C44.3775 40.1453 43.4856 39.2534 43.4856 38.1531C43.4856 37.0528 44.3775 36.1609 45.4778 36.1609H72.3254C73.4257 36.1609 74.3176 37.0528 74.3176 38.1531C74.3176 39.2534 73.4257 40.1453 72.3254 40.1453Z" fill="#F9E4C7"/>
<path d="M88.1663 101.964L95.2047 109.002C95.3154 108.451 95.5737 107.935 95.9896 107.519L98.4529 105.055C98.8687 104.64 99.3854 104.381 99.9363 104.271L92.8979 97.2322C92.2279 98.1129 91.4932 98.9572 90.6921 99.7583C89.8912 100.559 89.0469 101.294 88.1663 101.964Z" fill="#CCD2DB"/>
<path d="M95.0481 103.533C94.2269 102.712 94.2646 101.374 95.1238 100.593C95.3214 100.413 95.5164 100.23 95.7095 100.044L92.8981 97.2322C92.2281 98.1129 91.4935 98.9572 90.6924 99.758C89.8912 100.559 89.0469 101.294 88.1665 101.964L95.2049 109.002C95.3156 108.451 95.5739 107.935 95.9898 107.519L97.512 105.997L95.0481 103.533Z" fill="#BCC2CC"/>
<path d="M90.9123 99.9779C80.405 110.485 63.3083 110.485 52.8008 99.9779C42.2933 89.4707 42.2933 72.3739 52.8008 61.8665C63.3083 51.359 80.4048 51.359 90.9123 61.8665C101.42 72.3739 101.42 89.4707 90.9123 99.9779Z" fill="#E4EAF8"/>
<path d="M61.1612 99.978C50.6537 89.4705 50.6537 72.3739 61.1612 61.8665C65.3505 57.6771 70.5875 55.1599 76.0368 54.3112C67.819 53.0311 59.1187 55.5483 52.8006 61.8665C42.2934 72.3739 42.2934 89.4705 52.8006 99.978C59.1185 106.296 67.8188 108.813 76.0365 107.533C70.5875 106.685 65.3505 104.167 61.1612 99.978Z" fill="#CCD2DB"/>
<path d="M98.1239 104.727L95.6607 107.19C94.4536 108.397 94.4536 110.354 95.6607 111.561L114.685 130.585C115.892 131.792 117.849 131.792 119.056 130.585L121.519 128.122C122.726 126.915 122.726 124.958 121.519 123.751L102.495 104.727C101.288 103.519 99.331 103.519 98.1239 104.727Z" fill="#FF6B6B"/>
<path d="M103.63 111.561C102.422 110.354 102.422 108.397 103.63 107.19L104.294 106.525L102.495 104.727C101.288 103.52 99.3312 103.52 98.1241 104.727L95.6609 107.19C94.4535 108.397 94.4535 110.354 95.6609 111.562L114.685 130.586C115.892 131.793 117.849 131.793 119.056 130.586L120.855 128.787L103.63 111.561Z" fill="#EE5253"/>
<path d="M58.7152 67.7809C51.4693 75.0268 51.4693 86.817 58.7152 94.0632C65.9612 101.309 77.7513 101.309 84.9975 94.0632C92.2435 86.8173 92.2435 75.0268 84.9975 67.7809C77.7516 60.5349 65.9614 60.5349 58.7152 67.7809Z" fill="#54A0FF"/>
<path d="M66.684 94.0633C59.4381 86.8173 59.4381 75.0272 66.684 67.781C69.2894 65.1756 72.4829 63.5123 75.8408 62.7806C69.8597 61.4769 63.356 63.1402 58.7152 67.781C51.4693 75.0269 51.4693 86.8171 58.7152 94.0633C63.356 98.7041 69.8597 100.367 75.8408 99.0637C72.4829 98.3319 69.2894 96.6687 66.684 94.0633Z" fill="#338DEF"/>
</svg>
