<svg width="148" height="148" viewBox="0 0 148 148" fill="none" xmlns="http://www.w3.org/2000/svg">
<path d="M115.862 92.2172L81.074 57.4294L88.3226 52.568L81.1613 45.4067C74.8754 39.1208 65.4924 37.8489 57.932 41.5532L47.742 31.084L14.3229 64.5034L41.7746 91.955L38.5047 102.386L64.951 128.832C67.8145 131.696 72.8904 132.138 75.8998 129.428C79.22 126.439 79.3206 121.32 76.2019 118.201L78.101 120.1C80.9645 122.964 86.0407 123.407 89.0501 120.697C92.3703 117.707 92.4709 112.589 89.3522 109.47L91.365 111.482C94.2284 114.346 99.3044 114.788 102.314 112.079C105.634 109.089 105.735 103.971 102.616 100.852L104.612 102.848C107.475 105.711 112.551 106.154 115.56 103.444C118.88 100.455 118.981 95.3359 115.862 92.2172Z" fill="#F6D190"/>
<path d="M86.9464 121.983L44.7418 79.7786C35.4195 70.4563 35.4195 55.3421 44.7418 46.0198L53.6293 37.1323L47.7423 31.084L14.3229 64.5034L41.7746 91.955L38.5047 102.386L64.9513 128.832C67.8067 131.688 72.8742 132.137 75.8828 129.444C79.1966 126.477 79.316 121.401 76.258 118.271L78.1164 120.128C80.3841 122.396 84.0286 123.116 86.9464 121.983Z" fill="#ECBD83"/>
<path d="M29.7036 104.526C26.6823 101.504 26.6823 96.6062 29.7036 93.5849L34.1956 89.0929C37.2169 86.0716 42.1151 86.0716 45.1363 89.0929C48.1576 92.1141 48.1576 97.0123 45.1363 100.034L40.6443 104.526C37.623 107.547 32.7246 107.547 29.7036 104.526Z" fill="#D19A6E"/>
<path d="M40.6443 115.466C37.623 112.445 37.623 107.547 40.6443 104.526L43.0013 102.169C46.0226 99.1473 50.9207 99.1473 53.942 102.169C56.9633 105.19 56.9633 110.088 53.942 113.109L51.585 115.466C48.5637 118.488 43.6653 118.488 40.6443 115.466Z" fill="#D19A6E"/>
<path d="M52.9525 125.039C49.9312 122.018 49.9312 117.12 52.9525 114.099C55.9738 111.077 60.8719 111.077 63.8932 114.099C66.9145 117.12 66.9145 122.018 63.8932 125.039C60.8719 128.061 55.9738 128.061 52.9525 125.039Z" fill="#D19A6E"/>
<path d="M100.484 31.3101L90.7535 41.0408C83.4374 37.1286 74.1663 38.1814 67.9962 44.3514L55.7501 56.5975C52.7288 59.6188 52.7288 64.517 55.7501 67.5383V67.5386C58.7714 70.5598 63.6698 70.5598 66.6908 67.5386L75.561 58.6684C77.4254 56.8039 80.4482 56.8039 82.3126 58.6684L110.912 87.2685L137.258 60.9231L100.484 31.3101Z" fill="#D19A6E"/>
<path d="M137.258 60.9228L104.224 34.3218L100.484 31.3101L90.7533 41.0408C83.4371 37.1286 74.166 38.1814 67.996 44.3514L55.7498 56.5975C53.4712 58.8762 52.9121 62.2247 54.071 65.0283L71.3719 47.7274C74.8404 44.2589 79.7747 42.7789 84.7911 43.8603C86.1714 44.1577 87.4895 44.709 88.7345 45.375L88.7362 45.3758C90.4518 46.2933 92.566 45.98 93.9417 44.6043L94.1292 44.4167C96.3464 42.1996 99.9409 42.1996 102.158 44.4167L127.961 70.2202L137.258 60.9228Z" fill="#C38C66"/>
<path d="M51.1679 28.9638L39.6649 17.4609C38.7327 16.5287 37.2212 16.5287 36.289 17.4609L0.699292 53.0503C-0.232935 53.9825 -0.232935 55.494 0.699292 56.4259L12.2022 67.9289C13.1345 68.8611 14.646 68.8611 15.5779 67.9289L51.1676 32.3395C52.0998 31.4073 52.0998 29.8961 51.1679 28.9638Z" fill="#0A537E"/>
<path d="M11.2365 59.8019C8.43981 57.0052 8.43981 52.471 11.2365 49.6743L41.5574 19.3534L39.6646 17.4609C38.7324 16.5287 37.2209 16.5287 36.2887 17.4609L0.699292 53.0503C-0.232935 53.9825 -0.232935 55.494 0.699292 56.4259L12.2022 67.9289C13.1345 68.8611 14.646 68.8611 15.5779 67.9289L17.4707 66.0361L11.2365 59.8019Z" fill="#073957"/>
<path d="M147.301 56.4259L135.798 67.9289C134.866 68.8611 133.354 68.8611 132.422 67.9289L96.8326 32.3395C95.9004 31.4073 95.9004 29.8958 96.8326 28.9638L108.336 17.4609C109.268 16.5287 110.779 16.5287 111.711 17.4609L147.301 53.0503C148.233 53.9825 148.233 55.494 147.301 56.4259Z" fill="#FAA74A"/>
<path d="M107.37 25.5879C104.573 28.3846 104.573 32.9188 107.37 35.7155L137.691 66.0364L135.798 67.9289C134.866 68.8611 133.354 68.8611 132.422 67.9289L96.8326 32.3395C95.9004 31.4073 95.9004 29.8958 96.8326 28.9638L108.336 17.4609C109.268 16.5287 110.779 16.5287 111.711 17.4609L113.604 19.3537L107.37 25.5879Z" fill="#F68820"/>
<path d="M84.6283 101.262C83.6646 102.225 83.6646 103.788 84.6283 104.751L91.3646 111.483C93.6323 113.751 97.2997 114.493 100.217 113.361L88.1182 101.262C87.1544 100.298 85.5921 100.298 84.6283 101.262Z" fill="#ECBD83"/>
<path d="M97.8988 92.6549C96.9351 93.6187 96.9351 95.181 97.8988 96.1448L104.635 102.876C106.903 105.144 110.544 105.861 113.462 104.728L101.389 92.6549C100.425 91.6912 98.8626 91.6912 97.8988 92.6549Z" fill="#ECBD83"/>
<path d="M33.6334 97.5147L38.1254 93.0227C40.4518 90.6963 43.9015 90.1757 46.7398 91.4322C46.3646 90.5844 45.831 89.7878 45.1363 89.0929C42.1151 86.0716 37.2169 86.0716 34.1956 89.0929L29.7036 93.5849C26.6823 96.6062 26.6823 101.505 29.7036 104.526C30.3985 105.221 31.2246 105.767 32.0725 106.143C30.8162 103.304 31.307 99.8411 33.6334 97.5147Z" fill="#C38C66"/>
<path d="M44.5741 108.456L46.9311 106.098C49.2575 103.772 52.7179 103.269 55.5562 104.525C55.181 103.677 54.6369 102.863 53.942 102.169H53.9417C50.9205 99.1473 46.0223 99.1473 43.001 102.169L40.644 104.526C37.6227 107.547 37.6227 112.445 40.644 115.466C41.3389 116.161 42.161 116.709 43.0088 117.084C41.7529 114.246 42.2477 110.782 44.5741 108.456Z" fill="#C38C66"/>
<path d="M56.8823 118.029C59.2087 115.703 62.6869 115.233 65.5253 116.489C65.1501 115.642 64.5881 114.794 63.8932 114.099C60.8719 111.078 55.9735 111.078 52.9525 114.099C49.9312 117.121 49.9312 122.019 52.9525 125.04C53.6474 125.735 54.4761 126.284 55.324 126.66C54.0674 123.821 54.5559 120.355 56.8823 118.029Z" fill="#C38C66"/>
<path d="M114.207 83.9734L90.2642 60.03C88.4445 58.2104 85.4943 58.2104 83.6747 60.03L110.913 87.2681L114.207 83.9734Z" fill="#C38C66"/>
</svg>
