<svg width="24" height="24" viewBox="0 0 24 24" fill="none" xmlns="http://www.w3.org/2000/svg">
<g clip-path="url(#clip0)">
<path d="M0 8.52502C0 10.5544 0.756226 12.4129 2.38 14.3719C3.83295 16.125 5.92053 17.9042 8.33844 19.9645C9.16461 20.6684 10.1008 21.4664 11.0722 22.3163C11.3267 22.539 11.6528 22.6626 11.9916 22.6646H12C12.3417 22.6646 12.6711 22.5408 12.9278 22.316C13.8973 21.4682 14.8321 20.6711 15.6568 19.9682L15.661 19.9651C18.0786 17.9046 20.1671 16.125 21.6196 14.3719C23.2438 12.4129 24 10.5544 24 8.52502C24 6.55316 23.3238 4.73364 22.0961 3.40192C20.8535 2.05426 19.1488 1.3125 17.2954 1.3125C15.9099 1.3125 14.6415 1.75012 13.5244 2.61383C12.9606 3.04999 12.4499 3.58319 12 4.20593L11.9916 4.19476C11.5435 3.57678 11.0356 3.04724 10.4753 2.61383C9.35852 1.75012 8.0896 1.3125 6.70459 1.3125C4.85083 1.3125 3.14612 2.05426 1.90393 3.40192C0.676208 4.73364 0 6.55261 0 8.52502Z" fill="#FF5E95"/>
<path d="M-0.000364304 8.52502C-0.000364304 10.5544 0.755861 12.4129 2.37964 14.3719C3.83258 16.125 5.92017 17.9042 8.33807 19.9645C9.16425 20.6684 10.1005 21.4664 11.0718 22.3163C11.3264 22.539 11.6525 22.6626 11.9912 22.6646V4.19476C11.5432 3.57678 11.0352 3.04724 10.4749 2.61383C9.35815 1.75012 8.08923 1.3125 6.70422 1.3125C4.85046 1.3125 3.14575 2.05426 1.90357 3.40192C0.675844 4.73364 -0.000364304 6.55261 -0.000364304 8.52502Z" fill="#FF3980"/>
</g>
<defs>
<clipPath id="clip0">
<rect width="24" height="24" transform="matrix(-1 0 0 1 24 0)" fill="white"/>
</clipPath>
</defs>
</svg>
