<svg width="113" height="113" viewBox="0 0 113 113" fill="none" xmlns="http://www.w3.org/2000/svg">
<path d="M15.8906 40.6094H97.1094V82.9844H15.8906V40.6094Z" fill="#598C44"/>
<path d="M15.8906 33.5469H97.1094V75.9219H15.8906V33.5469Z" fill="#5F9548"/>
<path d="M15.8906 26.4844H97.1094V68.8594H15.8906V26.4844Z" fill="#699C46"/>
<path d="M15.8906 19.4219H97.1094V61.7969H15.8906V19.4219Z" fill="#74A650"/>
<path d="M86.5156 54.7344C86.5156 56.6075 85.7715 58.4038 84.4471 59.7283C83.1226 61.0528 81.3262 61.7969 79.4531 61.7969H15.8906V19.4219H86.5156V54.7344Z" fill="#7EB457"/>
<path d="M86.5156 26.4844H26.4844C26.4844 27.4209 26.1123 28.3191 25.4501 28.9813C24.7879 29.6436 23.8897 30.0156 22.9531 30.0156V51.2031C23.8897 51.2031 24.7879 51.5752 25.4501 52.2374C26.1123 52.8996 26.4844 53.7978 26.4844 54.7344H80.8018C81.9882 54.7344 83.1511 54.4041 84.1603 53.7804C85.1695 53.1567 85.9851 52.2642 86.5156 51.2031V26.4844Z" fill="#5F9548"/>
<path d="M33.5469 44.1406C35.4971 44.1406 37.0781 42.5596 37.0781 40.6094C37.0781 38.6591 35.4971 37.0781 33.5469 37.0781C31.5966 37.0781 30.0156 38.6591 30.0156 40.6094C30.0156 42.5596 31.5966 44.1406 33.5469 44.1406Z" fill="#7EB457"/>
<path d="M56.5 54.7344C64.301 54.7344 70.625 48.4104 70.625 40.6094C70.625 32.8084 64.301 26.4844 56.5 26.4844C48.699 26.4844 42.375 32.8084 42.375 40.6094C42.375 48.4104 48.699 54.7344 56.5 54.7344Z" fill="#7EB457"/>
<path d="M51.2031 19.4219H61.7969V82.9844H51.2031V19.4219Z" fill="#FBBE18"/>
<path d="M51.2031 61.7969H61.7969V82.9844H51.2031V61.7969Z" fill="#FA9F0C"/>
<path d="M88.2812 82.9844V107.703H50.9074C47.6182 107.703 44.3742 106.937 41.4326 105.465L20.8454 95.1738C19.8873 94.6939 19.0815 93.9569 18.5183 93.0452C17.9551 92.1336 17.6566 91.0832 17.6562 90.0116V89.6275C17.6563 88.6607 17.8993 87.7094 18.3629 86.861C18.8265 86.0125 19.4958 85.2942 20.3095 84.7719C21.1231 84.2496 22.0549 83.9402 23.0193 83.8719C23.9837 83.8037 24.9498 83.9789 25.8289 84.3814L45.9062 93.5781H49.4375C48.0327 93.5781 46.6854 93.0201 45.692 92.0267C44.6987 91.0333 44.1406 89.6861 44.1406 88.2812C44.1406 86.8764 44.6987 85.5291 45.692 84.5358C46.6854 83.5424 48.0327 82.9844 49.4375 82.9844H62.9732L63.1387 82.885C66.614 80.8006 70.5589 79.6263 74.6084 79.4709C78.6578 79.3154 82.6811 80.1838 86.306 81.9956L88.2812 82.9844Z" fill="#FEC9A3"/>
<path d="M88.2812 85.9727V107.703H53.9751C69.7009 104.143 81.5972 97.8906 88.2812 85.9727Z" fill="#FEC093"/>
<path d="M63.5625 95.3438H49.4375C48.9692 95.3438 48.5201 95.1577 48.189 94.8266C47.8579 94.4955 47.6719 94.0464 47.6719 93.5781C47.6719 93.1099 47.8579 92.6608 48.189 92.3296C48.5201 91.9985 48.9692 91.8125 49.4375 91.8125H63.5625C64.0308 91.8125 64.4799 91.9985 64.811 92.3296C65.1421 92.6608 65.3281 93.1099 65.3281 93.5781C65.3281 94.0464 65.1421 94.4955 64.811 94.8266C64.4799 95.1577 64.0308 95.3438 63.5625 95.3438Z" fill="#F7AD7C"/>
<path d="M88.2812 82.9844H107.703V107.703H88.2812V82.9844Z" fill="#0A537E"/>
<path d="M97.1094 102.406C96.411 102.406 95.7282 102.199 95.1475 101.811C94.5668 101.423 94.1142 100.872 93.8469 100.226C93.5797 99.5811 93.5097 98.8711 93.646 98.1861C93.7822 97.5011 94.1185 96.8719 94.6124 96.378C95.1063 95.8842 95.7355 95.5479 96.4205 95.4116C97.1055 95.2753 97.8155 95.3453 98.4607 95.6126C99.106 95.8798 99.6575 96.3324 100.046 96.9131C100.434 97.4939 100.641 98.1766 100.641 98.875C100.64 99.8112 100.267 100.709 99.6051 101.371C98.9431 102.033 98.0456 102.405 97.1094 102.406Z" fill="#313B4C"/>
<path d="M79.4531 5.29688H77.6875V47.6719H79.4531C81.3262 47.6719 83.1226 48.416 84.4471 49.7404C85.7715 51.0649 86.5156 52.8613 86.5156 54.7344V12.3594C86.5156 10.4863 85.7715 8.68991 84.4471 7.36543C83.1226 6.04096 81.3262 5.29688 79.4531 5.29688Z" fill="#88C25E"/>
</svg>
