<svg width="32" height="33" viewBox="0 0 32 33" fill="none" xmlns="http://www.w3.org/2000/svg">
<path fill-rule="evenodd" clip-rule="evenodd" d="M21.3332 12.375C19.5651 12.375 17.8694 13.0993 16.6192 14.3886C15.369 15.678 14.6666 17.4266 14.6666 19.25V27.5H17.3333V19.25C17.3333 18.156 17.7547 17.1068 18.5048 16.3332C19.255 15.5596 20.2724 15.125 21.3332 15.125C22.3941 15.125 23.4115 15.5596 24.1617 16.3332C24.9118 17.1068 25.3332 18.156 25.3332 19.25V27.5H27.9999V19.25C27.9999 17.4266 27.2975 15.678 26.0473 14.3886C24.7971 13.0993 23.1014 12.375 21.3332 12.375ZM21.3332 9.625C18.8579 9.625 16.4839 10.6391 14.7336 12.4441C12.9832 14.2491 11.9999 16.6973 11.9999 19.25V28.875C11.9999 29.6344 12.5969 30.25 13.3333 30.25H18.6666C19.403 30.25 19.9999 29.6344 19.9999 28.875V19.25C19.9999 18.8853 20.1404 18.5356 20.3904 18.2777C20.6405 18.0199 20.9796 17.875 21.3332 17.875C21.6869 17.875 22.026 18.0199 22.2761 18.2777C22.5261 18.5356 22.6666 18.8853 22.6666 19.25V28.875C22.6666 29.6344 23.2635 30.25 23.9999 30.25H29.3332C30.0696 30.25 30.6666 29.6344 30.6666 28.875V19.25C30.6666 16.6973 29.6833 14.2491 27.9329 12.4441C26.1826 10.6391 23.8086 9.625 21.3332 9.625Z" fill="#0A537E"/>
<path fill-rule="evenodd" clip-rule="evenodd" d="M1.33325 12.375C1.33325 11.6156 1.93021 11 2.66659 11H7.99992C8.7363 11 9.33325 11.6156 9.33325 12.375V28.875C9.33325 29.6344 8.7363 30.25 7.99992 30.25H2.66659C1.93021 30.25 1.33325 29.6344 1.33325 28.875V12.375ZM3.99992 13.75V27.5H6.66658V13.75H3.99992Z" fill="#0A537E"/>
<path fill-rule="evenodd" clip-rule="evenodd" d="M5.33325 4.125C4.59687 4.125 3.99992 4.74061 3.99992 5.5C3.99992 6.25939 4.59687 6.875 5.33325 6.875C6.06963 6.875 6.66658 6.25939 6.66658 5.5C6.66658 4.74061 6.06963 4.125 5.33325 4.125ZM1.33325 5.5C1.33325 3.22183 3.12411 1.375 5.33325 1.375C7.54239 1.375 9.33325 3.22183 9.33325 5.5C9.33325 7.77818 7.54239 9.625 5.33325 9.625C3.12411 9.625 1.33325 7.77818 1.33325 5.5Z" fill="#0A537E"/>
</svg>
