<svg width="44" height="44" viewBox="0 0 44 44" fill="none" xmlns="http://www.w3.org/2000/svg">
<g id="icon/maps/place_24px">
<path id="icon/maps/place_24px_2" fill-rule="evenodd" clip-rule="evenodd" d="M22 3.6665C14.905 3.6665 9.16666 9.40484 9.16666 16.4998C9.16666 26.1248 22 40.3332 22 40.3332C22 40.3332 34.8333 26.1248 34.8333 16.4998C34.8333 9.40484 29.095 3.6665 22 3.6665ZM12.8333 16.4998C12.8333 11.4398 16.94 7.33315 22 7.33315C27.06 7.33315 31.1667 11.4398 31.1667 16.4998C31.1667 21.7798 25.8867 29.6815 22 34.6132C18.1867 29.7182 12.8333 21.7248 12.8333 16.4998ZM17.4167 16.4998C17.4167 13.9685 19.4687 11.9165 22 11.9165C23.6375 11.9165 25.1505 12.7901 25.9693 14.2082C26.788 15.6263 26.788 17.3734 25.9693 18.7915C25.1505 20.2096 23.6375 21.0832 22 21.0832C19.4687 21.0832 17.4167 19.0311 17.4167 16.4998Z" fill="#0A537E"/>
</g>
</svg>
