<svg width="375" height="667" viewBox="0 0 375 667" fill="none" xmlns="http://www.w3.org/2000/svg">
<path d="M-146 497C-223.906 308.456 -164.701 119.486 -41 9.99995C82.7012 -99.4863 170.331 -100.361 236.269 -61.4764C427 51 240.574 168 246.5 285C258.2 516 454.885 618.754 305.193 705.33C236.293 745.179 -14.0595 756.088 -146 497Z" fill="white"/>
<mask id="mask0" mask-type="alpha" maskUnits="userSpaceOnUse" x="-228" y="-127" width="677" height="877">
<path d="M-145.61 498.468C-223.516 309.925 -164.311 120.955 -40.61 11.469C83.0912 -98.0172 181.831 -113.428 236.659 -60.0073C425 123.5 187.207 172.388 229.5 354.5C264.11 503.531 455.275 620.222 305.583 706.798C236.683 746.648 -13.6694 757.556 -145.61 498.468Z" fill="white"/>
</mask>
<g mask="url(#mask0)">
<rect x="-37.9996" y="609" width="438" height="58" rx="29" fill="#F26732"/>
</g>
</svg>
