<svg width="115" height="115" viewBox="0 0 115 115" fill="none" xmlns="http://www.w3.org/2000/svg">
<g clip-path="url(#clip0)">
<path d="M18.122 96.8782C42.2329 120.989 81.0732 121.049 105.255 97.01C105.432 96.8348 105.607 96.6587 105.78 96.4819C118.788 83.2417 117.917 61.8605 103.892 49.7035C95.458 42.393 87.5161 39.3048 81.6059 33.3945C75.6958 27.4841 72.6074 19.5419 65.2969 11.1083C53.1401 -2.91649 31.7589 -3.78685 18.5187 9.22048C18.3419 9.39388 18.1658 9.56907 17.9906 9.74517C-6.04883 33.9277 -5.98886 72.7675 18.122 96.8782Z" fill="#E9E9E9"/>
<path d="M18.1221 96.8775C42.2329 120.988 81.0732 121.049 105.256 97.0093C105.432 96.8342 105.607 96.6581 105.78 96.4813C118.788 83.241 117.917 61.8598 103.892 49.7029C95.4581 42.3923 87.5161 39.3042 81.606 33.3938C81.606 33.394 18.1221 96.8775 18.1221 96.8775Z" fill="#D4D4D4"/>
<path d="M34.9775 88.8176C39.8349 88.8176 43.7725 84.8799 43.7725 80.0225C43.7725 75.1652 39.8349 71.2275 34.9775 71.2275C30.1202 71.2275 26.1825 75.1652 26.1825 80.0225C26.1825 84.8799 30.1202 88.8176 34.9775 88.8176Z" fill="#D1393C"/>
<path d="M41.198 73.802C44.6329 77.2369 44.6329 82.8059 41.198 86.2411C37.763 89.676 32.1941 89.676 28.7589 86.2411L41.198 73.802Z" fill="#BC2029"/>
<path d="M64.0924 99.0026C68.9497 99.0026 72.8874 95.065 72.8874 90.2076C72.8874 85.3503 68.9497 81.4126 64.0924 81.4126C59.235 81.4126 55.2974 85.3503 55.2974 90.2076C55.2974 95.065 59.235 99.0026 64.0924 99.0026Z" fill="#80CDD8"/>
<path d="M90.2072 82.5925C95.0646 82.5925 99.0023 78.6548 99.0023 73.7974C99.0023 68.9401 95.0646 65.0024 90.2072 65.0024C85.3499 65.0024 81.4122 68.9401 81.4122 73.7974C81.4122 78.6548 85.3499 82.5925 90.2072 82.5925Z" fill="#3A7484"/>
<path d="M41.2025 33.5876C46.0598 33.5876 49.9975 29.6499 49.9975 24.7926C49.9975 19.9352 46.0598 15.9976 41.2025 15.9976C36.3451 15.9976 32.4075 19.9352 32.4075 24.7926C32.4075 29.6499 36.3451 33.5876 41.2025 33.5876Z" fill="#E68D2C"/>
<path d="M24.7926 59.7026C29.6499 59.7026 33.5876 55.7649 33.5876 50.9076C33.5876 46.0502 29.6499 42.1125 24.7926 42.1125C19.9352 42.1125 15.9976 46.0502 15.9976 50.9076C15.9976 55.7649 19.9352 59.7026 24.7926 59.7026Z" fill="#E06B34"/>
<path d="M63.2147 60.704L54.2939 51.7832C51.0141 51.2644 47.5403 52.2682 45.0126 54.7957C38.9104 60.8979 42.1041 65.5944 34.4452 76.0493C34.4452 76.0493 54.6214 75.5655 60.202 69.9849C62.7297 67.4573 63.7335 63.9838 63.2147 60.704Z" fill="#EEBA7D"/>
<path d="M63.2602 61.0451C67.0668 59.9455 76.1428 52.7784 76.1428 52.7784C90.8619 38.0593 119.345 5.46768 114.439 0.561321C109.532 -4.34504 76.9386 24.1363 62.2195 38.8556C62.2195 38.8556 55.0545 47.9336 53.9548 51.7403L63.2602 61.0451Z" fill="#A8EAEF"/>
<path d="M63.2147 60.7042L58.7544 56.2439L39.2253 75.773C45.5508 75.2602 56.3511 73.8364 60.202 69.9855C62.7298 67.4575 63.7335 63.9839 63.2147 60.7042Z" fill="#E68D2C"/>
<path d="M76.1427 52.7783C90.862 38.0592 119.345 5.46756 114.439 0.561201C114.439 0.560977 114.438 0.560752 114.438 0.560303L58.6063 56.3916L63.2598 61.045C67.0667 59.9456 76.1427 52.7783 76.1427 52.7783Z" fill="#80CDD8"/>
<path d="M62.2195 38.8553C62.2195 38.8553 61.5601 39.6911 60.6111 40.9608L74.0378 54.3874C75.3072 53.4382 76.1428 52.7783 76.1428 52.7783C76.7369 52.1843 77.3539 51.5605 77.9895 50.9112L64.0869 37.0085C63.4373 37.6444 62.8136 38.261 62.2195 38.8553Z" fill="#EEBA7D"/>
<path d="M76.1427 52.7783C76.7368 52.1842 77.3538 51.5605 77.9894 50.9111L71.038 43.9597L67.3241 47.6736L74.0377 54.3872C75.3071 53.438 76.1427 52.7783 76.1427 52.7783Z" fill="#E68D2C"/>
</g>
<defs>
<clipPath id="clip0">
<rect width="115" height="115" fill="white"/>
</clipPath>
</defs>
</svg>
