<svg width="1233" height="886" viewBox="0 0 1233 886" fill="none" xmlns="http://www.w3.org/2000/svg">
<path d="M139.802 616.864C-5 568.746 -36.5459 245.149 155.227 267.833C347 290.518 436 211 505.25 283.302C757.88 547.066 773.567 513.082 669.695 680.769C626.5 750.5 576 846 406.487 807.436C316.721 787.014 396 702 139.802 616.864Z" fill="#0A537E" fill-opacity="0.85"/>
<path d="M713.5 646.998C586.961 674.064 522.636 689.338 427.5 566.498C332.363 443.657 690.217 462.86 673.5 239.5C655.5 -0.999985 930.5 28.9982 1001.68 157.108C1061.25 264.31 1168.18 663 1001.68 657.5C851.362 652.534 929.527 600.791 713.5 646.998Z" fill="#F26732" fill-opacity="0.8"/>
<path d="M577 149.5C721.658 102.995 1002.18 38.3518 982.089 231.926C962 425.5 1165.38 594.554 924 692.5C595 826 405 787.499 256 640.5C161.206 546.978 110.5 270.104 233 171.5C392.569 43.0579 370.059 216.028 577 149.5Z" fill="white"/>
</svg>
