<svg width="400" height="auto" viewBox="0 0 375 578" fill="none" xmlns="http://www.w3.org/2000/svg">
<path d="M283.632 513.433C243.177 547.279 164.567 560.965 107.841 532.96C51.1149 504.954 -0.0466774 375.707 88.2589 356.669C269.007 317.701 174.989 254.415 274.239 243.391C323.377 237.932 388.625 310.528 358.142 365.161C327.883 419.391 352.695 455.652 283.632 513.433Z" fill="#0A537E" fill-opacity="0.85">
  <animate repeatCount="indefinite" attributeName="d" dur="15s" values="M283.632 513.433C243.177 547.279 164.567 560.965 107.841 532.96C51.1149 504.954 -0.0466774 375.707 88.2589 356.669C269.007 317.701 174.989 254.415 274.239 243.391C323.377 237.932 388.625 310.528 358.142 365.161C327.883 419.391 352.695 455.652 283.632 513.433Z;M288 567C247.546 600.846 144.985 606.505 88.2591 578.5C31.5331 550.495 -0.0465051 389.707 88.2591 370.669C269.007 331.701 174.989 268.415 274.239 257.391C323.377 251.932 388.626 324.528 358.142 379.161C327.883 433.391 357.064 509.219 288 567Z;M283.632 513.433C243.177 547.279 164.567 560.965 107.841 532.96C51.1149 504.954 -0.0466774 375.707 88.2589 356.669C269.007 317.701 174.989 254.415 274.239 243.391C323.377 237.932 388.625 310.528 358.142 365.161C327.883 419.391 352.695 455.652 283.632 513.433Z"></animate>
</path>
<path d="M327.73 192.153C351.145 253.336 336.702 352.476 282.682 409.652C228.662 466.827 60.2593 478.961 72.266 366.205C96.8418 135.41 -12.1068 223.776 13.3267 100.978C25.9188 40.1814 134.532 -10.2702 185.701 46.8792C236.492 103.606 287.756 87.7023 327.73 192.153Z" fill="#F26732" fill-opacity="0.8">
  <animate repeatCount="indefinite" attributeName="d" dur="15s" values="M327.73 192.153C351.145 253.336 336.702 352.476 282.682 409.652C228.662 466.827 60.2593 478.961 72.266 366.205C96.8418 135.41 -12.1068 223.776 13.3267 100.978C25.9188 40.1814 134.532 -10.2702 185.701 46.8792C236.492 103.606 287.756 87.7023 327.73 192.153Z;M351.5 200C374.915 261.183 336.702 366.476 282.682 423.651C228.662 480.827 124.524 480.839 72.2661 380.205C14 268 6.56649 238.797 32 116C44.5921 55.2029 171.831 -8.14948 223 48.9999C273.791 105.727 311.526 95.5488 351.5 200Z;M327.73 192.153C351.145 253.336 336.702 352.476 282.682 409.652C228.662 466.827 60.2593 478.961 72.266 366.205C96.8418 135.41 -12.1068 223.776 13.3267 100.978C25.9188 40.1814 134.532 -10.2702 185.701 46.8792C236.492 103.606 287.756 87.7023 327.73 192.153Z"></animate>
</path>
<path d="M31 404C-3.55289 335.271 0.999976 235 61 121C121 7.00003 368.717 15.9465 354 147C333 334 356.161 386.899 362.898 453.209C377 592 245.829 592.293 201 535C137.095 453.328 80.4295 502.32 31 404Z" fill="white">
  <animate repeatCount="indefinite" attributeName="d" dur="15s" values="M31 404C-3.55289 335.271 0.999976 235 61 121C121 7.00003 368.717 15.9465 354 147C333 334 356.161 386.899 362.898 453.209C377 592 245.829 592.293 201 535C137.095 453.328 80.4295 502.32 31 404Z;M26.5 450C-8.05285 381.271 -3.00008 205.5 62.9999 118C129 30.5001 361.717 10.9465 347 142C326 329 359.763 306.69 366.5 373C380.602 511.791 288 493.5 201 549C130.393 594.043 75.9296 548.32 26.5 450Z;M31 404C-3.55289 335.271 0.999976 235 61 121C121 7.00003 368.717 15.9465 354 147C333 334 356.161 386.899 362.898 453.209C377 592 245.829 592.293 201 535C137.095 453.328 80.4295 502.32 31 404Z"></animate>
</path>
</svg>
