<svg width="375" height="612" viewBox="0 0 375 612" fill="none" xmlns="http://www.w3.org/2000/svg">
<path d="M288 567C247.546 600.846 144.985 606.505 88.2591 578.5C31.5331 550.495 -0.0465051 389.707 88.2591 370.669C269.007 331.701 174.989 268.415 274.239 257.391C323.377 251.932 388.626 324.528 358.142 379.161C327.883 433.391 357.064 509.219 288 567Z" fill="#0A537E" fill-opacity="0.85"/>
<path d="M351.5 200C374.915 261.183 336.702 366.476 282.682 423.651C228.662 480.827 124.524 480.839 72.2661 380.205C14 268 6.56649 238.797 32 116C44.5921 55.2029 171.831 -8.14948 223 48.9999C273.791 105.727 311.526 95.5488 351.5 200Z" fill="#F26732" fill-opacity="0.8"/>
<path d="M26.5 450C-8.05285 381.271 -3.00008 205.5 62.9999 118C129 30.5001 361.717 10.9465 347 142C326 329 359.763 306.69 366.5 373C380.602 511.791 288 493.5 201 549C130.393 594.043 75.9296 548.32 26.5 450Z" fill="white"/>
</svg>
