<svg width="550" height="auto" viewBox="0 0 375 762" fill="none" preserveAspectRatio="xMaxyMax meet" xmlns="http://www.w3.org/2000/svg">
<path d="M301.701 120.793C375.936 180.565 357.896 248.363 323.435 319.386C288.974 390.408 274.854 415.379 236.733 422.434C187.364 431.571 95.7965 405.143 141.422 285.331C187.048 165.518 -2.41866 193.364 48.6504 126.053C72.1565 95.071 188.263 44.0061 301.701 120.793Z" fill="#E7EEF3">
  <animate repeatCount="indefinite" attributeName="d" dur="15s" values="M301.701 120.793C375.936 180.565 357.896 248.363 323.435 319.386C288.974 390.408 274.854 415.379 236.733 422.434C187.364 431.571 95.7965 405.143 141.422 285.331C187.048 165.518 -2.41866 193.364 48.6504 126.053C72.1565 95.071 188.263 44.0061 301.701 120.793Z;M74.3657 303.901C38.6857 221.584 72.1804 154.088 132 110.001C191.82 65.9134 225.751 70.1919 260.605 81.0084C305.744 95.0166 370.469 157.14 279.979 236.993C189.489 316.846 359.558 376.62 287.525 410.342C254.37 425.863 135.259 417.564 74.3657 303.901Z;M301.701 120.793C375.936 180.565 357.896 248.363 323.435 319.386C288.974 390.408 274.854 415.379 236.733 422.434C187.364 431.571 95.7965 405.143 141.422 285.331C187.048 165.518 -2.41866 193.364 48.6504 126.053C72.1565 95.071 188.263 44.0061 301.701 120.793Z"></animate>
</path>
<path d="M153.001 132.378C144.06 50.4838 266.008 21.6765 300.884 45.6184C335.761 69.5603 355.109 75.5552 361.751 97.268C370.353 125.388 343.131 142.327 293.087 142.327C233.076 142.327 258.923 226.796 211.468 220.164C189.302 217.067 159.974 196.252 153.001 132.378Z" fill="#E7EEF3" style="mix-blend-mode:multiply">
  <animate repeatCount="indefinite" attributeName="d" dur="15s" values="M153.001 132.378C144.06 50.4838 266.008 21.6765 300.884 45.6184C335.761 69.5603 355.109 75.5552 361.751 97.268C370.353 125.388 343.131 142.327 293.087 142.327C233.076 142.327 258.923 226.796 211.468 220.164C189.302 217.067 159.974 196.252 153.001 132.378Z;M333.591 95.2514C356.837 174.284 241.882 224.15 203.33 206.736C164.777 189.321 144.675 186.833 134.307 166.632C120.879 140.47 144.686 118.995 193.946 110.168C253.016 99.5827 212.675 20.9972 260.556 19.1543C282.921 18.2934 315.46 33.6083 333.591 95.2514Z;M153.001 132.378C144.06 50.4838 266.008 21.6765 300.884 45.6184C335.761 69.5603 355.109 75.5552 361.751 97.268C370.353 125.388 343.131 142.327 293.087 142.327C233.076 142.327 258.923 226.796 211.468 220.164C189.302 217.067 159.974 196.252 153.001 132.378Z"></animate>
</path>
<path d="M68.5339 549.124C86.8386 455.242 167.172 420.673 231.028 436.855C294.885 453.037 326.382 451.367 347.788 479.509C375.511 515.955 349.526 577.349 271.757 582.345C166.858 589.084 267.369 724.164 194.465 740.051C160.412 747.472 55.7835 668.795 68.5339 549.124Z" fill="#FDE8E0">
  <animate repeatCount="indefinite" attributeName="d" dur="15s" values="M68.5339 549.124C86.8386 455.242 167.172 420.673 231.028 436.855C294.885 453.037 326.382 451.367 347.788 479.509C375.511 515.955 349.526 577.349 271.757 582.345C166.858 589.084 267.369 724.164 194.465 740.051C160.412 747.472 55.7835 668.795 68.5339 549.124Z;M287.775 479.368C341.217 558.696 308.856 639.944 252.261 673.655C195.665 707.366 174.573 730.819 139.538 726.056C94.1637 719.888 69.1257 658.102 120.584 599.578C189.993 520.638 23.4061 496.194 63.723 433.41C82.555 404.083 212.171 385.732 287.775 479.368Z;M68.5339 549.124C86.8386 455.242 167.172 420.673 231.028 436.855C294.885 453.037 326.382 451.367 347.788 479.509C375.511 515.955 349.526 577.349 271.757 582.345C166.858 589.084 267.369 724.164 194.465 740.051C160.412 747.472 55.7835 668.795 68.5339 549.124Z"></animate>
</path>
<path d="M140.209 699.574C90.7243 709.806 57.3363 682.563 41.5714 660.688C25.8064 638.814 18.8666 587.458 41.5713 564.434C58.5574 547.209 106.735 527.554 125.035 564.433C149.719 614.178 184.946 566.969 207.561 599.255C218.124 614.336 201.128 681.374 140.209 699.574Z" fill="#FDE8E0" style="mix-blend-mode:multiply">
  <animate repeatCount="indefinite" attributeName="d" dur="15s" values="M140.209 699.574C90.7243 709.806 57.3363 682.563 41.5714 660.688C25.8064 638.814 18.8666 587.458 41.5713 564.434C58.5574 547.209 106.735 527.554 125.035 564.433C149.719 614.178 184.946 566.969 207.561 599.255C218.124 614.336 201.128 681.374 140.209 699.574Z;M25.8847 675.166C9.46062 627.378 32.2505 590.806 51.9498 572.394C71.6491 553.983 121.71 540.588 147.428 560.19C166.667 574.855 192.272 620.151 158.011 642.979C111.798 673.772 163.092 702.728 133.934 729.254C120.314 741.645 51.6622 733.286 25.8847 675.166Z;M140.209 699.574C90.7243 709.806 57.3363 682.563 41.5714 660.688C25.8064 638.814 18.8666 587.458 41.5713 564.434C58.5574 547.209 106.735 527.554 125.035 564.433C149.719 614.178 184.946 566.969 207.561 599.255C218.124 614.336 201.128 681.374 140.209 699.574Z"></animate>
</path>
</svg>
