<svg width="550" height="auto" viewBox="0 0 375 762" fill="none" preserveAspectRatio="xMaxyMax meet" xmlns="http://www.w3.org/2000/svg">
<path d="M301.701 120.793C375.936 180.565 357.896 248.363 323.435 319.386C288.974 390.408 274.854 415.379 236.733 422.434C187.364 431.571 95.7965 405.143 141.422 285.331C187.048 165.518 -2.41866 193.364 48.6504 126.053C72.1565 95.071 188.263 44.0061 301.701 120.793Z" fill="#E7EEF3">
  <animate repeatCount="indefinite" attributeName="d" dur="10s" values="M301.701 120.793C375.936 180.565 357.896 248.363 323.435 319.386C288.974 390.408 274.854 415.379 236.733 422.434C187.364 431.571 95.7965 405.143 141.422 285.331C187.048 165.518 -2.41866 193.364 48.6504 126.053C72.1565 95.071 188.263 44.0061 301.701 120.793Z;M286.5 113.999C334.63 189.714 327.321 298.265 275.143 351.175C222.965 404.086 186.46 413.72 152.664 399.948C62.0001 362.999 219.5 271.499 109.104 248.921C-1.29115 226.343 8.64307 123.477 74.507 78.8922C104.823 58.3705 208.56 11.2729 286.5 113.999Z;M301.701 120.793C375.936 180.565 357.896 248.363 323.435 319.386C288.974 390.408 274.854 415.379 236.733 422.434C187.364 431.571 95.7965 405.143 141.422 285.331C187.048 165.518 -2.41866 193.364 48.6504 126.053C72.1565 95.071 188.263 44.0061 301.701 120.793Z"></animate>
</path>
<path d="M153.001 132.378C144.06 50.4838 266.008 21.6765 300.884 45.6184C335.761 69.5603 355.109 75.5552 361.751 97.268C370.353 125.388 343.131 142.327 293.087 142.327C233.076 142.327 258.923 226.796 211.468 220.164C189.302 217.067 159.974 196.252 153.001 132.378Z" fill="#E7EEF3" style="mix-blend-mode:multiply">
  <animate repeatCount="indefinite" attributeName="d" dur="10s" values="M153.001 132.378C144.06 50.4838 266.008 21.6765 300.884 45.6184C335.761 69.5603 355.109 75.5552 361.751 97.268C370.353 125.388 343.131 142.327 293.087 142.327C233.076 142.327 258.923 226.796 211.468 220.164C189.302 217.067 159.974 196.252 153.001 132.378Z;M137.776 146.545C121.381 65.8122 196.5 45.1644 249 35.5001C301.5 25.8358 328.763 75.0527 320 95.9997C305.561 130.514 280.5 119 253.5 127C195.962 144.049 244.798 191.154 198.5 203.5C183.5 207.5 150.563 209.514 137.776 146.545Z;M153.001 132.378C144.06 50.4838 266.008 21.6765 300.884 45.6184C335.761 69.5603 355.109 75.5552 361.751 97.268C370.353 125.388 343.131 142.327 293.087 142.327C233.076 142.327 258.923 226.796 211.468 220.164C189.302 217.067 159.974 196.252 153.001 132.378Z"></animate>
</path>
<path d="M68.5339 549.124C86.8386 455.242 167.172 420.673 231.028 436.855C294.885 453.037 326.382 451.367 347.788 479.509C375.511 515.955 349.526 577.349 271.757 582.345C166.858 589.084 267.369 724.164 194.465 740.051C160.412 747.472 55.7835 668.795 68.5339 549.124Z" fill="#FDE8E0">
  <animate repeatCount="indefinite" attributeName="d" dur="10s" values="M68.5339 549.124C86.8386 455.242 167.172 420.673 231.028 436.855C294.885 453.037 326.382 451.367 347.788 479.509C375.511 515.955 349.526 577.349 271.757 582.345C166.858 589.084 267.369 724.164 194.465 740.051C160.412 747.472 55.7835 668.795 68.5339 549.124Z;M63.5001 650.5C10.0588 571.172 35.4046 483.211 92.0001 449.5C148.596 415.789 180.186 419.255 198.5 449.5C231.5 504 158 567 208 580C319.149 608.899 313.568 644.073 262 698C219.217 742.74 129.5 727.5 63.5001 650.5Z;M68.5339 549.124C86.8386 455.242 167.172 420.673 231.028 436.855C294.885 453.037 326.382 451.367 347.788 479.509C375.511 515.955 349.526 577.349 271.757 582.345C166.858 589.084 267.369 724.164 194.465 740.051C160.412 747.472 55.7835 668.795 68.5339 549.124Z"></animate>
</path>
<path d="M140.209 699.574C90.7243 709.806 57.3363 682.563 41.5714 660.688C25.8064 638.814 18.8666 587.458 41.5713 564.434C58.5574 547.209 106.735 527.554 125.035 564.433C149.719 614.178 184.946 566.969 207.561 599.255C218.124 614.336 201.128 681.374 140.209 699.574Z" fill="#FDE8E0" style="mix-blend-mode:multiply">
  <animate repeatCount="indefinite" attributeName="d" dur="10s" values="M140.209 699.574C90.7243 709.806 57.3363 682.563 41.5714 660.688C25.8064 638.814 18.8666 587.458 41.5713 564.434C58.5574 547.209 106.735 527.554 125.035 564.433C149.719 614.178 184.946 566.969 207.561 599.255C218.124 614.336 201.128 681.374 140.209 699.574Z;M145 559C187.379 586.485 192.855 633.705 185 659.5C177.146 685.294 155 732.5 104.5 709C82.5671 698.793 134.121 658.5 39.0001 641C6.30727 634.985 7.75578 574.034 39.0001 550C71.5001 525 123.255 544.897 145 559Z;M140.209 699.574C90.7243 709.806 57.3363 682.563 41.5714 660.688C25.8064 638.814 18.8666 587.458 41.5713 564.434C58.5574 547.209 106.735 527.554 125.035 564.433C149.719 614.178 184.946 566.969 207.561 599.255C218.124 614.336 201.128 681.374 140.209 699.574Z"></animate>
</path>
</svg>
