<svg width="358" height="745" viewBox="0 0 358 745" fill="none" xmlns="http://www.w3.org/2000/svg">
<path d="M74.3657 303.901C38.6857 221.584 72.1804 154.088 132 110.001C191.82 65.9134 225.751 70.1919 260.605 81.0084C305.744 95.0166 370.469 157.14 279.979 236.993C189.489 316.846 359.558 376.62 287.525 410.342C254.37 425.863 135.259 417.564 74.3657 303.901Z" fill="#E7EEF3"/>
<path d="M333.591 95.2514C356.837 174.284 241.882 224.15 203.33 206.736C164.777 189.321 144.675 186.833 134.307 166.632C120.879 140.47 144.686 118.995 193.946 110.168C253.016 99.5827 212.675 20.9972 260.556 19.1543C282.921 18.2934 315.46 33.6083 333.591 95.2514Z" fill="#E7EEF3" style="mix-blend-mode:multiply"/>
<path d="M287.775 479.368C341.217 558.696 308.856 639.944 252.261 673.655C195.665 707.366 174.573 730.819 139.538 726.056C94.1637 719.888 69.1257 658.102 120.584 599.578C189.993 520.638 23.4061 496.194 63.723 433.41C82.555 404.083 212.171 385.732 287.775 479.368Z" fill="#FDE8E0"/>
<path d="M25.8847 675.166C9.46062 627.378 32.2505 590.806 51.9498 572.394C71.6491 553.983 121.71 540.588 147.428 560.19C166.667 574.855 192.272 620.151 158.011 642.979C111.798 673.772 163.092 702.728 133.934 729.254C120.314 741.645 51.6622 733.286 25.8847 675.166Z" fill="#FDE8E0" style="mix-blend-mode:multiply"/>
</svg>
