<svg width="1160" height="658" viewBox="0 50 1160 658" fill="none" xmlns="http://www.w3.org/2000/svg">
  <path d="M350.771 227.098C446.259 303.982 423.055 391.19 378.728 482.545C334.4 573.9 316.239 606.021 267.204 615.096C203.701 626.848 85.9192 592.854 144.607 438.741C203.294 284.628 -40.4135 320.446 25.2758 233.865C55.5114 194.013 204.858 128.329 350.771 227.098Z" fill="#E7EEF3">
    <animate repeatCount="indefinite" attributeName="d" dur="10s" values="M350.771 227.098C446.259 303.982 423.055 391.19 378.728 482.545C334.4 573.9 316.239 606.021 267.204 615.096C203.701 626.848 85.9192 592.854 144.607 438.741C203.294 284.628 -40.4135 320.446 25.2758 233.865C55.5114 194.013 204.858 128.329 350.771 227.098Z;M362.497 211.499C457.985 288.383 399.37 416.5 386.996 441.999C374.623 467.499 304.531 543.925 255.496 553C191.992 564.752 145.496 526.5 145.496 427C145.496 327.5 -13.8776 324.26 32.2723 225.865C69.4966 146.5 216.584 112.73 362.497 211.499Z;M350.771 227.098C446.259 303.982 423.055 391.19 378.728 482.545C334.4 573.9 316.239 606.021 267.204 615.096C203.701 626.848 85.9192 592.854 144.607 438.741C203.294 284.628 -40.4135 320.446 25.2758 233.865C55.5114 194.013 204.858 128.329 350.771 227.098Z">
    </animate>
  </path>
  <path d="M631.157 303.525C659.777 156.735 785.383 102.684 885.226 127.985C985.069 153.286 1034.32 150.676 1067.79 194.678C1111.13 251.663 1070.51 347.656 948.908 355.468C784.893 366.005 942.047 577.209 828.058 602.05C774.813 613.653 611.221 490.638 631.157 303.525Z" fill="#FDE8E0">
    <animate repeatCount="indefinite" attributeName="d" dur="10s" values="M631.157 303.525C659.777 156.735 785.383 102.684 885.226 127.985C985.069 153.286 1034.32 150.676 1067.79 194.678C1111.13 251.663 1070.51 347.656 948.908 355.468C784.893 366.005 942.047 577.209 828.058 602.05C774.813 613.653 611.221 490.638 631.157 303.525Z;M619.997 278C648.617 131.21 756 111.035 798.499 101C840.998 90.9658 966.529 110.695 992.499 159.5C1050.5 268.5 850.521 264.761 904.5 374C982.095 531.032 943.499 547 819.998 547C765.504 547 600.061 465.113 619.997 278Z;M631.157 303.525C659.777 156.735 785.383 102.684 885.226 127.985C985.069 153.286 1034.32 150.676 1067.79 194.678C1111.13 251.663 1070.51 347.656 948.908 355.468C784.893 366.005 942.047 577.209 828.058 602.05C774.813 613.653 611.221 490.638 631.157 303.525Z">
    </animate>
  </path>
  <path d="M703.789 549.957C626.416 565.955 574.212 523.359 549.563 489.157C524.913 454.954 514.063 374.657 549.563 338.657C576.121 311.724 651.45 280.993 680.063 338.656C718.658 416.434 773.737 342.621 809.097 393.102C825.613 416.682 799.04 521.5 703.789 549.957Z" fill="#FDE8E0" style="mix-blend-mode:multiply">
    <animate repeatCount="indefinite" attributeName="d" dur="10s" values="M703.789 549.957C626.416 565.955 574.212 523.359 549.563 489.157C524.913 454.954 514.063 374.657 549.563 338.657C576.121 311.724 651.45 280.993 680.063 338.656C718.658 416.434 773.737 342.621 809.097 393.102C825.613 416.682 799.04 521.5 703.789 549.957Z;M710.997 565C630.497 589.05 564.997 570 528.997 507.5C492.997 445 493.997 374 543.497 329C602.997 274.909 639.101 414.049 689.497 374C764.997 314 816.094 323.468 816.094 385.102C816.094 428.5 806.247 536.543 710.997 565Z;M703.789 549.957C626.416 565.955 574.212 523.359 549.563 489.157C524.913 454.954 514.063 374.657 549.563 338.657C576.121 311.724 651.45 280.993 680.063 338.656C718.658 416.434 773.737 342.621 809.097 393.102C825.613 416.682 799.04 521.5 703.789 549.957Z">
    </animate>
  </path>
  <path d="M159.5 242C148 136.661 304.86 99.6065 349.721 130.403C394.582 161.199 419.469 168.91 428.013 196.839C439.078 233.009 404.063 254.798 339.691 254.798C262.5 254.798 295.746 363.449 234.706 354.919C206.194 350.934 168.47 324.161 159.5 242Z" fill="#E7EEF3" style="mix-blend-mode:multiply">
    <animate repeatCount="indefinite" attributeName="d" dur="10s" values="M159.5 242C148 136.661 304.86 99.6065 349.721 130.403C394.582 161.199 419.469 168.91 428.013 196.839C439.078 233.009 404.063 254.798 339.691 254.798C262.5 254.798 295.746 363.449 234.706 354.919C206.194 350.934 168.47 324.161 159.5 242Z;M144.497 171C170.997 66 295.497 82.4998 346.497 103.5C397.497 124.5 409.997 147.294 409.997 176.5C409.996 205.707 374.067 188.668 318.997 222C280.997 245 273.537 329.03 212.497 320.5C183.985 316.516 124.272 251.136 144.497 171Z;M159.5 242C148 136.661 304.86 99.6065 349.721 130.403C394.582 161.199 419.469 168.91 428.013 196.839C439.078 233.009 404.063 254.798 339.691 254.798C262.5 254.798 295.746 363.449 234.706 354.919C206.194 350.934 168.47 324.161 159.5 242Z">
    </animate>
  </path>
</svg>