<svg width="107" height="106" viewBox="0 0 107 106" fill="none" xmlns="http://www.w3.org/2000/svg">
<path d="M81.0859 45.8881H25.9141C24.5297 45.8881 23.4062 44.7751 23.4062 43.4037V26.0131H83.5938V43.4037C83.5938 44.7767 82.4702 45.8881 81.0859 45.8881Z" fill="#0A537E"/>
<path d="M23.4062 26.0131V32.6381H51.1594C52.4517 32.6381 53.5 33.6765 53.5 34.9568V45.8881H81.0859C82.4702 45.8881 83.5938 44.7751 83.5938 43.4037V26.0131H23.4062Z" fill="#084365"/>
<path d="M101.148 26.0131H5.85156C4.46725 26.0131 3.34375 24.9001 3.34375 23.5287V21.8724C3.34375 20.5011 4.46725 19.3881 5.85156 19.3881H101.148C102.533 19.3881 103.656 20.5011 103.656 21.8724V23.5287C103.656 24.9017 102.533 26.0131 101.148 26.0131Z" fill="#084365"/>
<path d="M50.9922 26.0131H5.85156C4.46725 26.0131 3.34375 24.9001 3.34375 23.5287V21.8724C3.34375 20.5011 4.46725 19.3881 5.85156 19.3881H50.9922C52.3765 19.3881 53.5 20.5011 53.5 21.8724V23.5287C53.5 24.9017 52.3765 26.0131 50.9922 26.0131Z" fill="#0A537E"/>
<path d="M95.2969 32.6381C95.9071 32.6381 96.4772 32.802 96.9688 33.0852V19.3881H93.625V33.0852C94.1165 32.802 94.6866 32.6381 95.2969 32.6381Z" fill="#F68820"/>
<path d="M91.1172 55.8256H99.4766C99.938 55.8256 100.312 55.4546 100.312 54.9974V40.9193C100.312 40.0051 99.5635 39.2631 98.6406 39.2631H91.9531C91.0303 39.2631 90.2812 40.0051 90.2812 40.9193V54.9974C90.2812 55.4546 90.6558 55.8256 91.1172 55.8256Z" fill="#F68820"/>
<path d="M91.9531 35.9506H98.6406V39.2631H91.9531V35.9506Z" fill="#B3B4B6"/>
<path d="M91.9531 35.9506H95.2969V39.2631H91.9531V35.9506Z" fill="#DBDEE3"/>
<path d="M98.6406 35.9506H91.9531C91.9531 34.1204 93.4495 32.6381 95.2969 32.6381C97.1443 32.6381 98.6406 34.1221 98.6406 35.9506Z" fill="#FBBE18"/>
<path d="M96.9688 19.3881H51.8281C51.8281 17.5579 53.3245 16.0756 55.1719 16.0756H93.625C95.4724 16.0756 96.9688 17.5596 96.9688 19.3881Z" fill="#FBBE18"/>
<path d="M95.2969 39.2631H91.9531C91.0303 39.2631 90.2812 40.0051 90.2812 40.9193V54.9974C90.2812 55.4546 90.6558 55.8256 91.1172 55.8256H95.2969V39.2631Z" fill="#FBBE18"/>
<path d="M92.7891 44.2318C92.3276 44.2318 91.9531 44.6028 91.9531 45.0599V55.8256H93.625V45.0599C93.625 44.6028 93.2505 44.2318 92.7891 44.2318Z" fill="#F68820"/>
<path d="M97.8047 50.0287C97.3433 50.0287 96.9688 50.3997 96.9688 50.8568V55.8256H98.6406V50.8568C98.6406 50.3997 98.2661 50.0287 97.8047 50.0287Z" fill="#FBBE18"/>
<path d="M10.0312 79.0131C16.0333 79.0131 20.8984 74.1934 20.8984 68.2474C20.8984 63.2158 16.7823 59.1381 11.7031 59.1381H94.4609C99.5401 59.1381 103.656 63.2158 103.656 68.2474C103.656 74.1934 98.7911 79.0131 92.7891 79.0131H10.0312Z" fill="#DB9E68"/>
<path d="M10.0312 74.0443C13.263 74.0443 15.8828 71.449 15.8828 68.2474H98.6406C98.6406 71.449 96.0208 74.0443 92.7891 74.0443H10.0312Z" fill="#BE7850"/>
<path d="M10.0312 74.0443C6.33808 74.0443 3.34375 71.078 3.34375 67.4193C3.34375 62.8464 7.08708 59.1381 11.7031 59.1381H94.4609C89.8449 59.1381 86.1016 62.8464 86.1016 67.4193C86.1016 71.078 89.0959 74.0443 92.7891 74.0443H10.0312Z" fill="#EEC78E"/>
<path d="M48.4844 69.0756C48.4844 63.5868 52.975 59.1381 58.5156 59.1381H50.9922C45.4516 59.1381 40.9609 63.5868 40.9609 69.0756C40.9609 74.5644 45.4516 79.0131 50.9922 79.0131H58.5156C52.975 79.0131 48.4844 74.5644 48.4844 69.0756Z" fill="#5C76B2"/>
<path d="M32.6016 69.0756V88.2649C32.6016 89.7406 34.4022 90.4793 35.4555 89.4358L39.7789 85.1528C40.4326 84.5052 41.4909 84.5052 42.143 85.1528L46.4664 89.4358C47.5197 90.4793 49.3203 89.7406 49.3203 88.2649V69.0756H32.6016Z" fill="#6FA4D8"/>
<path d="M32.6016 77.9497C32.6718 78.1187 32.7236 78.2959 32.7353 78.4847L32.844 80.3463C32.9058 81.3898 33.9157 82.1169 34.9372 81.8519L36.7578 81.3798C37.3898 81.2159 38.0602 81.4312 38.4749 81.933L39.6686 83.3756C40.3373 84.1839 41.5862 84.1839 42.255 83.3756L43.4487 81.933C43.8633 81.4328 44.5337 81.2159 45.1657 81.3798L46.9864 81.8519C48.0079 82.1169 49.0177 81.3898 49.0796 80.3463L49.1882 78.4847C49.1999 78.2959 49.2501 78.1187 49.322 77.9497V69.0756H32.6032V77.9497H32.6016Z" fill="#5C76B2"/>
<path d="M42.255 57.1588L43.4487 58.6014C43.8633 59.1016 44.5337 59.3185 45.1657 59.1546L46.9864 58.6825C48.0079 58.4175 49.0177 59.1446 49.0796 60.1881L49.1882 62.0497C49.2267 62.6956 49.6413 63.2604 50.2499 63.4956L52.0037 64.1747C52.9867 64.5556 53.3729 65.7315 52.8028 66.611L51.7863 68.1811C51.4336 68.726 51.4336 69.425 51.7863 69.9699L52.8028 71.54C53.3729 72.4195 52.9867 73.5971 52.0037 73.9763L50.2499 74.6554C49.6413 74.8906 49.2267 75.4554 49.1882 76.1013L49.0796 77.9629C49.0177 79.0064 48.0079 79.7335 46.9864 79.4685L45.1657 78.9964C44.5337 78.8325 43.8633 79.0478 43.4487 79.5496L42.255 80.9922C41.5862 81.8005 40.3373 81.8005 39.6686 80.9922L38.4749 79.5496C38.0602 79.0494 37.3898 78.8325 36.7579 78.9964L34.9372 79.4685C33.9157 79.7335 32.9059 79.0064 32.844 77.9629L32.7353 76.1013C32.6969 75.4554 32.2822 74.8906 31.6737 74.6554L29.9199 73.9763C28.9368 73.5954 28.5506 72.4195 29.1207 71.54L30.1372 69.9699C30.49 69.425 30.49 68.726 30.1372 68.1811L29.1207 66.611C28.5506 65.7315 28.9368 64.5539 29.9199 64.1747L31.6737 63.4956C32.2822 63.2604 32.6969 62.6956 32.7353 62.0497L32.844 60.1881C32.9059 59.1446 33.9157 58.4175 34.9372 58.6825L36.7579 59.1546C37.3898 59.3185 38.0602 59.1032 38.4749 58.6014L39.6686 57.1588C40.3373 56.3505 41.5846 56.3505 42.255 57.1588Z" fill="#FBBE18"/>
<path d="M40.9609 78.1849C46.0394 78.1849 50.1562 74.1065 50.1562 69.0756C50.1562 64.0446 46.0394 59.9662 40.9609 59.9662C35.8825 59.9662 31.7656 64.0446 31.7656 69.0756C31.7656 74.1065 35.8825 78.1849 40.9609 78.1849Z" fill="#F68820"/>
<path d="M41.7417 62.82L43.0541 66.2219L46.7255 66.4057C47.4913 66.4438 47.8056 67.3995 47.2087 67.8765L44.3481 70.1638L45.3061 73.68C45.5068 74.4137 44.6859 75.005 44.0422 74.5893L40.9609 72.6034L37.8813 74.5926C37.2377 75.0083 36.4184 74.417 36.6174 73.6833L37.5754 70.1671L34.7148 67.8798C34.1179 67.4028 34.4306 66.4472 35.198 66.4091L38.8694 66.2252L40.1818 62.8233C40.4543 62.1094 41.4675 62.1094 41.7417 62.82Z" fill="#FBBE18"/>
</svg>
