<svg width="25" height="25" viewBox="0 0 25 25" fill="none" xmlns="http://www.w3.org/2000/svg">
<path d="M21.1347 16.035C20.5882 16.0368 20.0485 16.1614 19.5522 16.4004C19.0559 16.6394 18.6146 16.9872 18.2581 17.4201L10.4052 13.3201C10.6486 12.4763 10.6486 11.5761 10.4052 10.7322L18.2581 6.63226C18.8698 7.34943 19.7104 7.8092 20.6229 7.92559C21.5353 8.04198 22.457 7.80702 23.2158 7.26465C23.9745 6.72228 24.5182 5.90963 24.7453 4.97865C24.9724 4.04767 24.8673 3.06211 24.4497 2.20625C24.032 1.35038 23.3304 0.682819 22.4761 0.328374C21.6217 -0.0260722 20.6731 -0.0431288 19.8076 0.280393C18.9421 0.603915 18.2189 1.24586 17.7733 2.08621C17.3278 2.92655 17.1903 3.90775 17.3866 4.84634L9.54223 8.94162C8.92778 8.11938 8.0831 7.51811 7.12603 7.22169C6.16896 6.92527 5.14724 6.94848 4.2034 7.2881C3.25956 7.62771 2.44067 8.26678 1.86099 9.11616C1.2813 9.96554 0.969727 10.9829 0.969727 12.0262C0.969727 13.0695 1.2813 14.0868 1.86099 14.9362C2.44067 15.7856 3.25956 16.4247 4.2034 16.7643C5.14724 17.1039 6.16896 17.1271 7.12603 16.8307C8.0831 16.5343 8.92778 15.933 9.54223 15.1108L17.3863 19.206C17.2208 20.0163 17.2998 20.8603 17.6122 21.6217C17.9247 22.3832 18.4552 23.0247 19.1309 23.458C19.8065 23.8912 20.5941 24.095 21.3851 24.0411C22.1761 23.9872 22.9317 23.6784 23.5478 23.1571C24.164 22.6359 24.6104 21.9278 24.8257 21.1304C25.0409 20.333 25.0144 19.4855 24.7498 18.7045C24.4852 17.9235 23.9954 17.2475 23.348 16.7694C22.7006 16.2913 21.9273 16.0347 21.1347 16.035ZM21.1347 2.00421C21.5139 2.00421 21.8847 2.12176 22.2001 2.34201C22.5154 2.56225 22.7612 2.8753 22.9064 3.24155C23.0515 3.60781 23.0895 4.01083 23.0155 4.39964C22.9415 4.78846 22.7589 5.1456 22.4907 5.42592C22.2225 5.70624 21.8808 5.89714 21.5088 5.97448C21.1368 6.05182 20.7512 6.01213 20.4008 5.86042C20.0504 5.70871 19.7509 5.45181 19.5402 5.12218C19.3294 4.79256 19.217 4.40503 19.217 4.0086C19.2177 3.47722 19.4199 2.96781 19.7794 2.59207C20.1389 2.21633 20.6263 2.00492 21.1347 2.00421ZM5.79315 15.0328C5.22422 15.0328 4.66807 14.8564 4.19503 14.5261C3.72199 14.1957 3.35329 13.7261 3.13558 13.1768C2.91786 12.6274 2.86089 12.0229 2.97188 11.4396C3.08288 10.8564 3.35684 10.3207 3.75913 9.9002C4.16142 9.47972 4.67397 9.19337 5.23196 9.07736C5.78996 8.96135 6.36833 9.02089 6.89395 9.24846C7.41957 9.47602 7.86882 9.86138 8.1849 10.3558C8.50098 10.8502 8.66968 11.4315 8.66968 12.0262C8.66884 12.8233 8.36551 13.5875 7.82624 14.1512C7.28697 14.7149 6.55579 15.0319 5.79315 15.0328ZM21.1347 22.0482C20.7554 22.0482 20.3846 21.9306 20.0693 21.7104C19.7539 21.4901 19.5081 21.1771 19.3629 20.8108C19.2178 20.4446 19.1798 20.0415 19.2538 19.6527C19.3278 19.2639 19.5105 18.9068 19.7787 18.6264C20.0468 18.3461 20.3885 18.1552 20.7605 18.0779C21.1325 18.0005 21.5181 18.0402 21.8685 18.1919C22.2189 18.3437 22.5184 18.6006 22.7292 18.9302C22.9399 19.2598 23.0524 19.6473 23.0524 20.0438C23.0517 20.5751 22.8494 21.0846 22.4899 21.4603C22.1304 21.836 21.6431 22.0475 21.1347 22.0482Z" fill="#F26732"/>
</svg>
