<svg width="206" height="206" viewBox="0 0 206 206" style="width:300px;height:300px" fill="none" xmlns="http://www.w3.org/2000/svg" preserveAspectRatio="xMaxyMax meet">
<path d="M181.4 46.3968C181.4 42.705 179.087 39.5601 175.834 38.3138V3.09302C175.834 1.38463 174.447 0 172.741 0C171.032 0 169.646 1.38463 169.646 3.09302V38.3154C166.393 39.5617 164.079 42.705 164.079 46.3968C164.079 50.0887 166.393 53.232 169.646 54.4783V64.1298C169.646 65.8382 171.032 67.2228 172.741 67.2228C174.447 67.2228 175.834 65.8382 175.834 64.1298V54.4783C179.087 53.232 181.4 50.0887 181.4 46.3968Z" fill="#FFD664"/>
<path d="M177.049 38.8906C177.779 40.1605 178.204 41.63 178.204 43.2001C178.204 47.9827 174.326 51.8615 169.544 51.8615C167.972 51.8615 166.504 51.4371 165.234 50.7063C166.729 53.3043 169.527 55.0567 172.739 55.0567C177.523 55.0567 181.4 51.1794 181.4 46.3969C181.4 43.1844 179.648 40.3868 177.049 38.8906Z" fill="#F9C646"/>
<path d="M178.927 0H27.1582C25.4498 0 24.0652 1.38463 24.0652 3.09302C24.0652 4.80141 25.4498 6.18604 27.1582 6.18604H53.5526V45.5717H152.532V6.18604H178.927C180.635 6.18604 182.02 4.80141 182.02 3.09302C182.02 1.38463 180.633 0 178.927 0Z" fill="#636363"/>
<path d="M78.2983 137.952L43.0728 147.737C28.7927 151.704 18.9102 164.705 18.9102 179.526V201.977C18.9102 204.199 20.7113 206 22.9336 206H183.151C185.374 206 187.175 204.199 187.175 201.977V179.526C187.175 164.705 177.292 151.704 163.012 147.737L127.787 137.952H78.2983Z" fill="#DDF5FF"/>
<path d="M110.877 167.645L115.828 192.391L103.042 206L90.2571 192.391L95.2062 167.645H110.877Z" fill="#0A537E"/>
<path d="M115.828 192.391L110.879 167.645H103.042L109.317 199.32C112.571 195.856 115.828 192.391 115.828 192.391Z" fill="#0B3D5A"/>
<path d="M187.175 179.527V201.977C187.175 204.199 185.374 206 183.151 206H103.042L127.375 180.431L139.734 141.271L163.011 147.739C177.292 151.703 187.175 164.705 187.175 179.527Z" fill="#636363"/>
<path d="M163.012 147.737L160.343 146.995C167.512 153.122 171.914 162.195 171.914 172.082V206H183.151C185.372 206 187.175 204.199 187.175 201.977V179.525C187.175 164.705 177.292 151.704 163.012 147.737Z" fill="#494949"/>
<path d="M43.0728 147.737L66.349 141.271L78.7101 180.431L103.042 206H22.9336C20.7113 206 18.9102 204.199 18.9102 201.977V179.526C18.9102 164.705 28.7927 151.704 43.0728 147.737Z" fill="#636363"/>
<path d="M117.89 127.642L103.042 142.488L88.1951 127.642V104.135H117.89V127.642Z" fill="#F9B3A7"/>
<path d="M141.809 45.5718H152.532V62.0679H141.809V45.5718Z" fill="#7A4819"/>
<path d="M144.696 3.09302V29.0756C144.696 33.6303 141.003 37.3237 136.448 37.3237H53.5526V45.5717H152.532V3.09302H144.696Z" fill="#494949"/>
<path d="M53.5526 45.5718H64.276V62.0679H53.5526V45.5718Z" fill="#7A4819"/>
<path d="M103.042 45.5718H64.276V59.1807H58.09C53.5337 59.1807 49.8419 62.8741 49.8419 67.4288V73.203C49.8419 77.7577 53.5337 81.4511 58.09 81.4511H64.7695C67.7321 99.9212 83.7378 114.032 103.042 114.032C124.453 114.032 141.809 96.6757 141.809 75.2651V45.5718H103.042Z" fill="#FECCC1"/>
<path d="M147.995 59.1807H141.809V45.5718H130.262V75.2651C130.262 94.7127 115.939 110.816 97.2682 113.604C99.1526 113.885 101.079 114.032 103.042 114.032C122.347 114.032 138.353 99.9212 141.315 81.4511H147.995C152.551 81.4511 156.243 77.7593 156.243 73.203V67.4304C156.243 62.8741 152.551 59.1807 147.995 59.1807Z" fill="#F9B3A7"/>
<path d="M103.042 167.645H110.877L118.919 158.366L103.042 142.488L87.1641 158.366L95.2062 167.645H103.042Z" fill="#0A537E"/>
<path d="M103.042 142.488L98.197 147.335L106.513 155.65C108.043 157.181 108.131 159.633 106.714 161.268L101.186 167.645H110.877L118.919 158.366L103.042 142.488Z" fill="#0B3D5A"/>
<path d="M87.164 158.366L103.042 142.488L88.195 127.642L78.0908 138.021L87.164 158.366Z" fill="#C1E9F4"/>
<path d="M118.919 158.366L103.042 142.488L117.89 127.642L127.993 138.021L118.919 158.366Z" fill="#C1E9F4"/>
<path d="M158.924 193.215V206H152.738V193.215C152.738 191.508 154.124 190.122 155.831 190.122C157.538 190.122 158.924 191.508 158.924 193.215Z" fill="#494949"/>
<path d="M47.1606 206V193.215C47.1606 191.508 48.5453 190.122 50.2537 190.122C51.9605 190.122 53.3467 191.508 53.3467 193.215V206H47.1606Z" fill="#494949"/>
</svg>
