<svg width="117" height="117" viewBox="0 0 117 117" fill="none" xmlns="http://www.w3.org/2000/svg">
<path d="M99.0937 64.304C97.0593 62.2697 94.3546 61.1494 91.4777 61.1494C88.6007 61.1494 85.8951 62.2688 83.8617 64.304L65.1948 82.9709H51.6731L33.0071 64.3031C30.9719 62.2697 28.2672 61.1494 25.3902 61.1494C22.5132 61.1494 19.8085 62.2688 17.7751 64.304C13.5752 68.503 13.5752 75.3361 17.7742 79.536L40.3205 102.081V113.572C40.3205 115.466 41.8549 117 43.7482 117H73.1205C75.0129 117 76.5483 115.466 76.5483 113.572V102.081L99.0937 79.536C103.293 75.3361 103.293 68.503 99.0937 64.304Z" fill="#0A537E"/>
<path d="M99.0937 64.304C97.0593 62.2697 94.3546 61.1494 91.4777 61.1494C88.6007 61.1494 85.8951 62.2688 83.8617 64.304L65.1948 82.9709H58.434V117H73.1205C75.0129 117 76.5483 115.466 76.5483 113.572V102.081L99.0937 79.536C103.293 75.3361 103.293 68.503 99.0937 64.304Z" fill="#084366"/>
<path d="M58.4339 54.5403C48.7059 54.5403 40.7909 62.4544 40.7909 72.1833C40.7909 81.9113 48.7059 89.8263 58.4339 89.8263C68.1619 89.8263 76.076 81.9113 76.076 72.1833C76.076 62.4544 68.1619 54.5403 58.4339 54.5403Z" fill="#FFCEBF"/>
<path d="M84.6409 19.0409C84.2374 17.8001 83.1654 16.8959 81.8737 16.7075L67.8013 14.6625L61.5073 1.91025C60.9297 0.740891 59.738 0 58.4339 0C57.1289 0 55.9372 0.740891 55.3597 1.91025L49.0665 14.6625L34.9941 16.7075C33.7033 16.8959 32.6304 17.8001 32.2269 19.0409C31.8243 20.2817 32.1609 21.6438 33.0946 22.5543L43.2778 32.4805L40.873 46.4958C40.6525 47.7821 41.181 49.0818 42.237 49.8485C42.8341 50.2824 43.5411 50.5037 44.2517 50.5037C44.7979 50.5037 45.3451 50.3734 45.8468 50.1092L58.4339 43.4921L71.021 50.1092C71.5227 50.3734 72.0699 50.5037 72.6162 50.5037C72.6188 50.5037 72.6224 50.5037 72.626 50.5037C74.5166 50.5002 76.0484 48.9666 76.0484 47.076C76.0484 46.8127 76.0189 46.5565 75.9627 46.3092L73.59 32.4805L83.7733 22.5543C84.7078 21.6438 85.0435 20.2817 84.6409 19.0409Z" fill="#FBBE18"/>
<path d="M76.0761 72.1833C76.0761 62.4544 68.1619 54.5403 58.434 54.5403V89.8263C68.1619 89.8263 76.0761 81.9113 76.0761 72.1833Z" fill="#FFA78F"/>
<path d="M84.641 19.0409C84.2375 17.8001 83.1654 16.8959 81.8738 16.7075L67.8013 14.6625L61.5073 1.91025C60.9298 0.740891 59.7381 0 58.434 0V43.4921L71.0211 50.1092C71.5227 50.3734 72.0699 50.5037 72.6162 50.5037C72.6189 50.5037 72.6225 50.5037 72.626 50.5037C74.5166 50.5002 76.0484 48.9666 76.0484 47.076C76.0484 46.8127 76.0189 46.5565 75.9627 46.3092L73.5901 32.4805L83.7733 22.5543C84.7079 21.6438 85.0435 20.2817 84.641 19.0409Z" fill="#DEA814"/>
</svg>
