<svg width="99" height="100" viewBox="0 0 99 100" fill="none" xmlns="http://www.w3.org/2000/svg">
<path d="M67.4957 0H4.49072V94.7998H67.4957V0Z" fill="#0A537E"/>
<path d="M19.6522 7.33325H11.5646V20.8466H19.6522V7.33325Z" fill="#FBBE18"/>
<path d="M33.2415 7.33325H25.154V20.8466H33.2415V7.33325Z" fill="#FBBE18"/>
<path d="M46.8321 7.33325H38.7446V20.8466H46.8321V7.33325Z" fill="#FBBE18"/>
<path d="M60.4257 7.33325H52.3381V20.8466H60.4257V7.33325Z" fill="#FBBE18"/>
<path d="M19.6522 28.6799H11.5646V42.1933H19.6522V28.6799Z" fill="#FBBE18"/>
<path d="M33.2415 28.6799H25.154V42.1933H33.2415V28.6799Z" fill="#FBBE18"/>
<path d="M46.8322 28.6799H38.7446V42.1933H46.8322V28.6799Z" fill="#27A2DB"/>
<path d="M60.4256 28.6799H52.338V42.1933H60.4256V28.6799Z" fill="#27A2DB"/>
<path d="M46.8317 63.5318H38.7441L46.8317 50.0181V63.5318Z" fill="#2D93BA"/>
<path d="M60.4216 63.5318H52.3342L60.4216 50.0181V63.5318Z" fill="#2D93BA"/>
<path d="M19.6522 71.36H11.5646V84.8733H19.6522V71.36Z" fill="#FBBE18"/>
<path d="M33.2415 71.36H25.154V84.8733H33.2415V71.36Z" fill="#FBBE18"/>
<path d="M46.8322 71.36H38.7446V84.8733H46.8322V71.36Z" fill="#27A2DB"/>
<path d="M60.4256 71.36H52.338V84.8733H60.4256V71.36Z" fill="#27A2DB"/>
<path d="M19.6519 20.8476H11.5646L19.6519 7.33386V20.8476Z" fill="#DEA814"/>
<path d="M33.242 20.8476H25.1544L33.242 7.33386V20.8476Z" fill="#DEA814"/>
<path d="M46.8318 20.8476H38.7443L46.8318 7.33386V20.8476Z" fill="#DEA814"/>
<path d="M60.4216 20.8476H52.3342L60.4216 7.33386V20.8476Z" fill="#DEA814"/>
<path d="M19.6519 42.1896H11.5646L19.6519 28.676V42.1896Z" fill="#DEA814"/>
<path d="M33.242 42.1896H25.1544L33.242 28.676V42.1896Z" fill="#DEA814"/>
<path d="M46.8317 42.1896H38.7441L46.8317 28.676V42.1896Z" fill="#2D93BA"/>
<path d="M60.4216 42.1896H52.3342L60.4216 28.676V42.1896Z" fill="#2D93BA"/>
<path d="M19.6522 50.0133H11.5646V63.5266H19.6522V50.0133Z" fill="#FBBE18"/>
<path d="M33.2415 50.0133H25.154V63.5266H33.2415V50.0133Z" fill="#FBBE18"/>
<path d="M46.8322 50.0133H38.7446V63.5266H46.8322V50.0133Z" fill="#27A2DB"/>
<path d="M60.4256 50.0133H52.338V63.5266H60.4256V50.0133Z" fill="#27A2DB"/>
<path d="M19.6519 84.8738H11.5646L19.6519 71.3602V84.8738Z" fill="#DEA814"/>
<path d="M33.242 84.8738H25.1544L33.242 71.3602V84.8738Z" fill="#DEA814"/>
<path d="M46.8317 84.8738H38.7441L46.8317 71.3602V84.8738Z" fill="#2D93BA"/>
<path d="M60.4216 84.8738H52.3342L60.4216 71.3602V84.8738Z" fill="#2D93BA"/>
<path d="M92.7722 28.5372H38.7446V94.8051H92.7722V28.5372Z" fill="#FAA74A"/>
<path d="M74.7689 76.6172H56.76V94.8052H74.7689V76.6172Z" fill="#64798A"/>
<path d="M77.018 73.5559H54.4988V76.6185H77.018V73.5559Z" fill="#3A556A"/>
<path d="M50.6958 34.7212H43.2431V47.8519H50.6958V34.7212Z" fill="#27A2DB"/>
<path d="M63.2227 34.7212H55.77V47.8519H63.2227V34.7212Z" fill="#27A2DB"/>
<path d="M75.7495 34.7212H68.2968V47.8519H75.7495V34.7212Z" fill="#27A2DB"/>
<path d="M88.2697 34.7212H80.817V47.8519H88.2697V34.7212Z" fill="#27A2DB"/>
<path d="M50.6995 47.8521H43.2466L50.6995 34.7212V47.8521Z" fill="#66CAF0"/>
<path d="M63.2229 47.8521H55.77L63.2229 34.7212V47.8521Z" fill="#66CAF0"/>
<path d="M75.7462 47.8521H68.2935L75.7462 34.7212V47.8521Z" fill="#66CAF0"/>
<path d="M88.2697 47.8521H80.817L88.2697 34.7212V47.8521Z" fill="#66CAF0"/>
<path d="M50.6958 54.24H43.2431V67.3707H50.6958V54.24Z" fill="#66CAF0"/>
<path d="M63.2227 54.24H55.77V67.3707H63.2227V54.24Z" fill="#66CAF0"/>
<path d="M75.7495 54.24H68.2968V67.3707H75.7495V54.24Z" fill="#66CAF0"/>
<path d="M88.2697 54.24H80.817V67.3707H88.2697V54.24Z" fill="#66CAF0"/>
<path d="M88.2697 73.5559H80.817V86.6866H88.2697V73.5559Z" fill="#66CAF0"/>
<path d="M50.6958 73.5559H43.2431V86.6866H50.6958V73.5559Z" fill="#66CAF0"/>
<path d="M50.6995 67.3717H43.2466L50.6995 54.2408V67.3717Z" fill="#2D93BA"/>
<path d="M63.2229 67.3717H55.77L63.2229 54.2408V67.3717Z" fill="#2D93BA"/>
<path d="M75.7462 67.3717H68.2935L75.7462 54.2408V67.3717Z" fill="#2D93BA"/>
<path d="M88.2697 67.3717H80.817L88.2697 54.2408V67.3717Z" fill="#2D93BA"/>
<path d="M88.2697 86.6863H80.817L88.2697 73.5557V86.6863Z" fill="#2D93BA"/>
<path d="M50.6995 86.6863H43.2466L50.6995 73.5557V86.6863Z" fill="#2D93BA"/>
<path d="M96.3942 100H2.60576C1.87683 100 1.28574 99.4029 1.28574 98.6666V96.1385C1.28574 95.4022 1.87662 94.8052 2.60576 94.8052H96.3942C97.1231 94.8052 97.7142 95.402 97.7142 96.1385V98.6666C97.7142 99.4029 97.1231 100 96.3942 100Z" fill="#084366"/>
<path d="M19.6519 63.5318H11.5646L19.6519 50.0181V63.5318Z" fill="#DEA814"/>
<path d="M33.242 63.5318H25.1544L33.242 50.0181V63.5318Z" fill="#DEA814"/>
</svg>
