<svg width="34" height="33" viewBox="0 0 34 33" fill="none" xmlns="http://www.w3.org/2000/svg">
<g clip-path="url(#clip0)">
<path d="M11.7582 30.1124C8.0749 30.1124 4.2499 29.1499 0.849904 27.2249C0.283237 26.9499 -9.64329e-05 26.2624 0.14157 25.7124C0.283237 25.1624 0.849904 24.7499 1.41657 24.7499C3.8249 24.8874 6.23324 24.3374 8.35824 23.3749C3.11657 20.2124 1.6999 15.8124 1.55824 12.3749C1.41657 8.3874 2.83324 5.0874 2.9749 4.9499C3.11657 4.5374 3.54157 4.1249 4.10824 4.1249C4.6749 4.1249 5.0999 4.2624 5.38324 4.6749C7.79157 7.9749 11.4749 10.0374 15.5832 10.3124C15.5832 8.1124 16.5749 6.0499 18.2749 4.5374C21.2499 2.0624 25.6416 2.0624 28.6166 4.5374C29.7499 4.1249 30.8832 3.5749 31.8749 2.8874C32.2999 2.6124 33.0082 2.6124 33.4332 2.8874C33.8582 3.1624 34.1416 3.8499 33.9999 4.3999C33.5749 6.3249 32.5832 8.1124 31.1666 9.6249C31.1666 9.8999 31.1666 10.0374 31.1666 10.3124C31.1666 17.8749 27.7666 24.1999 21.6749 27.4999C18.6999 29.2874 15.2999 30.1124 11.7582 30.1124ZM7.08324 26.8124C11.7582 27.9124 16.4332 27.3624 20.3999 25.1624C25.4999 22.2749 28.4749 16.7749 28.4749 10.3124C28.4749 10.0374 28.4749 9.7624 28.3332 9.4874C28.1916 9.0749 28.3332 8.5249 28.7582 8.2499C29.0416 7.9749 29.3249 7.5624 29.6082 7.2874C29.3249 7.4249 28.8999 7.5624 28.6166 7.5624C28.0499 7.6999 27.4832 7.5624 27.1999 7.1499C25.3582 5.2249 22.2416 4.9499 20.2582 6.7374C18.9832 7.5624 18.4166 8.9374 18.4166 10.3124V11.6874C18.4166 12.3749 17.8499 13.0624 16.9999 13.0624C12.3249 13.1999 7.93324 11.4124 4.81657 8.2499C3.96657 11.8249 3.68324 18.5624 11.8999 21.9999C12.3249 22.2749 12.7499 22.6874 12.7499 23.2374C12.7499 23.7874 12.6082 24.1999 12.1832 24.4749C10.4832 25.5749 8.78324 26.3999 7.08324 26.8124Z" fill="#0A537E"/>
</g>
<defs>
<clipPath id="clip0">
<rect width="34" height="33" fill="white"/>
</clipPath>
</defs>
</svg>
