<svg width="1288" height="327" viewBox="0 0 1288 327" fill="none" xmlns="http://www.w3.org/2000/svg">
<path d="M5 20L371.551 320L652.915 66.9321L908.119 297.576L1280.25 10.3389" stroke="#F26732" stroke-width="10" stroke-linecap="round"/>
<path d="M1234 0C1231.24 0 1229 2.23858 1229 5C1229 7.76142 1231.24 10 1234 10V0ZM1282.98 5H1287.98V0H1282.98V5ZM1277.98 50.9153C1277.98 53.6767 1280.22 55.9153 1282.98 55.9153C1285.74 55.9153 1287.98 53.6767 1287.98 50.9153H1277.98ZM1234 10H1282.98V0H1234V10ZM1277.98 5V50.9153H1287.98V5H1277.98Z" fill="#F26732"/>
</svg>
