<svg width="39" height="39" viewBox="0 0 39 39" fill="none" xmlns="http://www.w3.org/2000/svg">
<g id="icon/communication/call_24px">
<path id="icon/communication/call_24px_2" fill-rule="evenodd" clip-rule="evenodd" d="M6.5 4.875H12.1875C13.0813 4.875 13.8125 5.60625 13.8125 6.5C13.8125 8.53125 14.1375 10.4813 14.7388 12.3013C14.9175 12.87 14.7875 13.5037 14.3325 13.9587L10.7575 17.5337C13.0975 22.1325 16.8675 25.8862 21.4662 28.2425L25.0413 24.6675C25.3662 24.3588 25.7725 24.1963 26.195 24.1963C26.3575 24.1963 26.5363 24.2125 26.6987 24.2775C28.5188 24.8787 30.485 25.2038 32.5 25.2038C33.3937 25.2038 34.125 25.935 34.125 26.8288V32.5C34.125 33.3937 33.3937 34.125 32.5 34.125C17.2412 34.125 4.875 21.7588 4.875 6.5C4.875 5.60625 5.60625 4.875 6.5 4.875ZM10.6275 8.125C10.725 9.57125 10.9687 10.985 11.3587 12.3338L9.40875 14.2838C8.7425 12.3338 8.32 10.27 8.17375 8.125H10.6275ZM26.65 27.6575C28.0312 28.0475 29.445 28.2913 30.875 28.3888V30.81C28.73 30.6638 26.6663 30.2413 24.7 29.5913L26.65 27.6575Z" fill="#0A537E"/>
</g>
</svg>
