<svg width="122" height="122" viewBox="0 0 122 122" fill="none" xmlns="http://www.w3.org/2000/svg">
<path d="M41.9375 57.1875H3.8125C1.83858 57.1875 0.238281 55.5872 0.238281 53.6133V46.4648C0.238281 33.983 10.3931 23.8281 22.875 23.8281C35.3569 23.8281 45.5117 33.983 45.5117 46.4648V53.6133C45.5117 55.5872 43.9114 57.1875 41.9375 57.1875Z" fill="#00AFFF"/>
<path d="M22.875 23.8281V57.1875H41.9375C43.9114 57.1875 45.5117 55.5872 45.5117 53.6133V46.4648C45.5117 33.983 35.3569 23.8281 22.875 23.8281Z" fill="#008CFA"/>
<path d="M22.875 30.9766C14.3348 30.9766 7.38672 24.0285 7.38672 15.4883C7.38672 6.94804 14.3345 0 22.875 0C31.4155 0 38.3633 6.94804 38.3633 15.4883C38.3633 24.0285 31.4152 30.9766 22.875 30.9766Z" fill="#FFD0AF"/>
<path d="M22.875 0V30.9766C31.4152 30.9766 38.363 24.0285 38.363 15.4883C38.363 6.94804 31.4152 0 22.875 0Z" fill="#FABE8C"/>
<path d="M118.188 56.9492H80.0625C78.0886 56.9492 76.4883 55.3489 76.4883 53.375V46.2266C76.4883 33.7447 86.6431 23.5898 99.125 23.5898C111.607 23.5898 121.762 33.7447 121.762 46.2266V53.375C121.762 55.3489 120.161 56.9492 118.188 56.9492Z" fill="#64E6E6"/>
<path d="M99.125 23.5898V56.9492H118.188C120.161 56.9492 121.762 55.3489 121.762 53.375V46.2266C121.762 33.7447 111.607 23.5898 99.125 23.5898Z" fill="#00CDCD"/>
<path d="M99.125 30.9766C90.5848 30.9766 83.6367 24.0285 83.6367 15.4883C83.6367 6.94804 90.5848 0 99.125 0C107.665 0 114.613 6.94804 114.613 15.4883C114.613 24.0285 107.665 30.9766 99.125 30.9766Z" fill="#FFD0AF"/>
<path d="M99.125 0V30.9766C107.665 30.9766 114.613 24.0285 114.613 15.4883C114.613 6.94804 107.665 0 99.125 0Z" fill="#FABE8C"/>
<path d="M80.0625 57.1875H41.9375C39.9636 57.1875 38.3633 55.5872 38.3633 53.6133V46.4648C38.3633 33.983 48.5181 23.8281 61 23.8281C73.4819 23.8281 83.6367 33.983 83.6367 46.4648V53.6133C83.6367 55.5872 82.0364 57.1875 80.0625 57.1875Z" fill="#FF823C"/>
<path d="M61 23.8281V57.1875H80.0625C82.0364 57.1875 83.6367 55.5872 83.6367 53.6133V46.4648C83.6367 33.983 73.4819 23.8281 61 23.8281Z" fill="#F06923"/>
<path d="M61 30.9766C52.4598 30.9766 45.5117 24.0285 45.5117 15.4883C45.5117 6.94804 52.4598 0 61 0C69.5402 0 76.4883 6.94804 76.4883 15.4883C76.4883 24.0285 69.5402 30.9766 61 30.9766Z" fill="#FFD0AF"/>
<path d="M61 0V30.9766C69.5402 30.9766 76.488 24.0285 76.488 15.4883C76.488 6.94804 69.5402 0 61 0Z" fill="#FABE8C"/>
<path d="M109.252 67.6719C104.81 67.6719 101.21 71.2723 101.21 75.7139V73.3311C101.21 68.8895 97.6095 65.2891 93.168 65.2891C88.7264 65.2891 85.126 68.8895 85.126 73.3311V70.9482C85.126 66.5067 81.5255 62.9062 77.084 62.9062C72.6424 62.9062 69.042 66.5067 69.042 70.9482V50.9326C69.042 46.4911 65.4416 42.8906 61 42.8906C56.5584 42.8906 52.958 46.4911 52.958 50.9326V80.4845L43.2411 85.3917C40.4161 86.8185 38.6611 89.671 38.6611 92.836V96.9805C38.6611 110.776 49.8849 122 63.6807 122H99.4229C109.277 122 117.294 113.983 117.294 104.129V90.5469V78.5435V75.7139C117.294 71.2723 113.694 67.6719 109.252 67.6719Z" fill="#FFD0AF"/>
<path d="M109.252 67.6719C104.81 67.6719 101.21 71.2723 101.21 75.7139V73.3311C101.21 68.8895 97.6095 65.2891 93.168 65.2891C88.7264 65.2891 85.126 68.8895 85.126 73.3311V70.9482C85.126 66.5067 81.5255 62.9062 77.084 62.9062C72.6424 62.9062 69.042 66.5067 69.042 70.9482V50.9326C69.042 46.4911 65.4416 42.8906 61 42.8906V121.856C61.8809 121.95 62.7752 122 63.6807 122H99.4229C109.277 122 117.294 113.983 117.294 104.129V90.5469V78.5435V75.7139C117.294 71.2723 113.694 67.6719 109.252 67.6719Z" fill="#FABE8C"/>
<path d="M45.8096 94.5975C45.8096 96.5714 47.4099 98.1717 49.3838 98.1717C51.3577 98.1717 52.958 96.5714 52.958 94.5975V80.4844L45.8096 84.0943V94.5975Z" fill="#FABE8C"/>
</svg>
