<svg width="50" height="50" viewBox="0 0 50 50" fill="none" xmlns="http://www.w3.org/2000/svg">
<circle cx="25" cy="25" r="25" fill="white" fill-opacity="0.74"/>
<path d="M18.4142 15.5858C17.6332 14.8047 16.3668 14.8047 15.5858 15.5858C14.8047 16.3668 14.8047 17.6332 15.5858 18.4142L18.4142 15.5858ZM31.0858 33.9142C31.8668 34.6953 33.1332 34.6953 33.9142 33.9142C34.6953 33.1332 34.6953 31.8668 33.9142 31.0858L31.0858 33.9142ZM15.5858 18.4142L31.0858 33.9142L33.9142 31.0858L18.4142 15.5858L15.5858 18.4142Z" fill="white"/>
<path d="M33.9142 18.4142C34.6953 17.6332 34.6953 16.3668 33.9142 15.5858C33.1332 14.8047 31.8668 14.8047 31.0858 15.5858L33.9142 18.4142ZM15.5858 31.0858C14.8047 31.8668 14.8047 33.1332 15.5858 33.9142C16.3668 34.6953 17.6332 34.6953 18.4142 33.9142L15.5858 31.0858ZM31.0858 15.5858L15.5858 31.0858L18.4142 33.9142L33.9142 18.4142L31.0858 15.5858Z" fill="white"/>
</svg>
