<svg width="1160" height="658" viewBox="0 0 1160 658" fill="none" xmlns="http://www.w3.org/2000/svg">
<path d="M350.771 227.098C446.259 303.982 423.055 391.19 378.728 482.545C334.4 573.9 316.239 606.021 267.204 615.096C203.701 626.848 85.9192 592.854 144.607 438.741C203.294 284.628 -40.4135 320.446 25.2758 233.865C55.5114 194.013 204.858 128.329 350.771 227.098Z" fill="#E7EEF3"/>
<path d="M631.157 303.525C659.777 156.735 785.383 102.684 885.226 127.985C985.069 153.286 1034.32 150.676 1067.79 194.678C1111.13 251.663 1070.51 347.656 948.908 355.468C784.893 366.005 942.047 577.209 828.058 602.05C774.813 613.653 611.221 490.638 631.157 303.525Z" fill="#FDE8E0"/>
<path d="M703.789 549.957C626.416 565.955 574.212 523.359 549.563 489.157C524.913 454.954 514.063 374.657 549.563 338.657C576.121 311.724 651.45 280.993 680.063 338.656C718.658 416.434 773.737 342.621 809.097 393.102C825.613 416.682 799.04 521.5 703.789 549.957Z" fill="#FDE8E0" style="mix-blend-mode:multiply"/>
<path d="M159.5 242C148 136.661 304.86 99.6065 349.721 130.403C394.582 161.199 419.469 168.91 428.013 196.839C439.078 233.009 404.063 254.798 339.691 254.798C262.5 254.798 295.746 363.449 234.706 354.919C206.194 350.934 168.47 324.161 159.5 242Z" fill="#E7EEF3" style="mix-blend-mode:multiply"/>
</svg>
