<svg width="33" height="32" viewBox="0 0 33 32" fill="none" xmlns="http://www.w3.org/2000/svg">
<path fill-rule="evenodd" clip-rule="evenodd" d="M14.7914 3.67664C16.3385 2.17635 18.437 1.3335 20.625 1.3335H24.75C25.5094 1.3335 26.125 1.93045 26.125 2.66683V8.00016C26.125 8.73654 25.5094 9.3335 24.75 9.3335H20.625V12.0002H24.75C25.1734 12.0002 25.5732 12.1893 25.8338 12.5129C26.0944 12.8366 26.1866 13.2586 26.0839 13.6569L24.7089 18.9902C24.5559 19.5838 24.0059 20.0002 23.375 20.0002H20.625V29.3335C20.625 30.0699 20.0094 30.6668 19.25 30.6668H13.75C12.9906 30.6668 12.375 30.0699 12.375 29.3335V20.0002H9.625C8.86561 20.0002 8.25 19.4032 8.25 18.6668V13.3335C8.25 12.5971 8.86561 12.0002 9.625 12.0002H12.375V9.3335C12.375 7.21176 13.2442 5.17693 14.7914 3.67664ZM20.625 4.00016C19.1663 4.00016 17.7674 4.56207 16.7359 5.56226C15.7045 6.56245 15.125 7.91901 15.125 9.3335V13.3335C15.125 14.0699 14.5094 14.6668 13.75 14.6668H11V17.3335H13.75C14.5094 17.3335 15.125 17.9304 15.125 18.6668V28.0002H17.875V18.6668C17.875 17.9304 18.4906 17.3335 19.25 17.3335H22.3014L22.9889 14.6668H19.25C18.4906 14.6668 17.875 14.0699 17.875 13.3335V9.3335C17.875 8.62625 18.1647 7.94797 18.6805 7.44788C19.1962 6.94778 19.8957 6.66683 20.625 6.66683H23.375V4.00016H20.625Z" fill="#0A537E"/>
</svg>
