<svg width="32" height="33" viewBox="0 0 32 33" fill="none" xmlns="http://www.w3.org/2000/svg">
<path fill-rule="evenodd" clip-rule="evenodd" d="M9.33325 4.125C6.38773 4.125 3.99992 6.58743 3.99992 9.625V23.375C3.99992 26.4126 6.38773 28.875 9.33325 28.875H22.6666C25.6121 28.875 27.9999 26.4126 27.9999 23.375V9.625C27.9999 6.58743 25.6121 4.125 22.6666 4.125H9.33325ZM1.33325 9.625C1.33325 5.06865 4.91497 1.375 9.33325 1.375H22.6666C27.0849 1.375 30.6666 5.06865 30.6666 9.625V23.375C30.6666 27.9313 27.0849 31.625 22.6666 31.625H9.33325C4.91497 31.625 1.33325 27.9313 1.33325 23.375V9.625Z" fill="#0A537E"/>
<path fill-rule="evenodd" clip-rule="evenodd" d="M16.6445 12.3601C15.8123 12.2328 14.9623 12.3794 14.2155 12.779C13.4687 13.1786 12.8631 13.8109 12.4848 14.5859C12.1066 15.3609 11.9749 16.2392 12.1086 17.0958C12.2423 17.9524 12.6344 18.7437 13.2294 19.3573C13.8243 19.9708 14.5916 20.3752 15.4223 20.513C16.253 20.6509 17.1046 20.5151 17.8561 20.125C18.6077 19.7349 19.2208 19.1104 19.6083 18.3403C19.9958 17.5702 20.1379 16.6936 20.0145 15.8354C19.8886 14.9599 19.4931 14.1494 18.8862 13.5236C18.2794 12.8978 17.4934 12.4899 16.6445 12.3601ZM12.9873 10.338C14.232 9.67201 15.6486 9.42769 17.0357 9.6398C18.4505 9.85616 19.7604 10.5361 20.7718 11.5791C21.7832 12.6221 22.4425 13.9729 22.6523 15.432C22.858 16.8624 22.6211 18.3233 21.9753 19.6069C21.3294 20.8904 20.3076 21.9313 19.0551 22.5814C17.8025 23.2316 16.3831 23.4579 14.9987 23.2281C13.6142 22.9984 12.3353 22.3243 11.3437 21.3018C10.3522 20.2793 9.69856 18.9604 9.47579 17.5327C9.25302 16.105 9.47245 14.6412 10.1029 13.3495C10.7333 12.0578 11.7427 11.004 12.9873 10.338Z" fill="#0A537E"/>
</svg>
