<svg xmlns="http://www.w3.org/2000/svg" width="418" height="408" viewBox="45 30 350 350" fill="none" style="&#10;    width: 302px;&#10;    height: 300px;&#10;" preserveAspectRatio="xMaxyMax meet">

<g clip-path="url(#clip0)">
<path d="M313.537 228.232L306.12 167.977L292.22 169.688L292.226 169.679L265.279 154.513C262.404 152.896 259.105 152.192 255.821 152.496L213.273 156.431C208.042 156.914 203.368 159.899 200.73 164.441L170.74 216.058C168.526 219.87 170.264 224.758 174.388 226.315L175.615 226.779C177.975 227.67 180.4 228.186 182.825 228.388L179.025 231.697L171.423 238.321L149.8 256.765C145.951 260.118 145.552 265.952 148.904 269.801L151.098 272.313C155.404 277.251 162.898 277.764 167.845 273.457L176.109 282.935C178.796 286.021 182.732 287.385 186.514 286.92C188.786 286.641 191.004 285.698 192.855 284.079L201.11 293.558C203.806 296.651 207.742 298.007 211.524 297.541C213.797 297.261 216.015 296.328 217.867 294.709L222.353 298.586C226.66 303.533 234.163 304.044 239.11 299.737L245.208 294.417L296.477 254.488L296.532 254.437L316.76 254.417L313.537 228.232Z" fill="#F29F5C"/>
<path d="M291.564 238.914L291.509 238.965L240.24 278.893L234.142 284.214C229.196 288.521 221.692 288.009 217.385 283.063L212.899 279.186C211.047 280.805 208.828 281.739 206.556 282.018C202.774 282.484 198.839 281.128 196.142 278.035L187.888 268.555C186.035 270.175 183.818 271.117 181.546 271.397C177.764 271.862 173.828 270.498 171.141 267.412L162.877 257.933C158.642 261.621 152.544 261.765 148.174 258.633C145.933 262.013 146.112 266.594 148.906 269.801L151.099 272.313C155.405 277.251 162.899 277.764 167.846 273.457L176.11 282.935C178.797 286.021 182.733 287.385 186.515 286.92C188.788 286.641 191.004 285.698 192.857 284.079L201.111 293.558C203.808 296.652 207.744 298.007 211.525 297.542C213.798 297.262 216.016 296.329 217.868 294.71L222.354 298.587C226.661 303.533 234.164 304.045 239.111 299.738L245.209 294.417L296.478 254.489L296.533 254.438L316.761 254.418L314.523 236.239L291.564 238.914Z" fill="#D37D42"/>
<path d="M300.901 264.977L273.432 241.292L265.793 234.711L260.327 230.004L236.826 209.746L239.54 186.643C240.459 178.829 235.54 171.514 227.957 169.416L176.729 155.241C171.308 153.741 165.58 156.256 163.016 161.261L156.573 173.837L128.92 171.96L121.837 232.255L118.758 258.458L145.676 260.248L145.732 260.299L201.965 308.772L208.093 314.058C213.064 318.338 220.564 317.785 224.843 312.814L233.044 303.298C234.905 304.907 237.129 305.828 239.403 306.096C243.187 306.54 247.116 305.163 249.795 302.054L257.997 292.53C259.858 294.139 262.081 295.069 264.355 295.336C268.139 295.78 272.068 294.394 274.738 291.293L282.948 281.769C287.919 286.049 295.41 285.494 299.689 280.533L301.868 278.008C305.2 274.141 304.768 268.309 300.901 264.977Z" fill="#F9C295"/>
<path d="M300.9 264.977L292.533 257.763C295.252 261.369 295.197 266.499 292.128 270.061L289.814 272.741C285.272 278.008 277.32 278.596 272.043 274.053L263.326 284.164C260.493 287.455 256.322 288.926 252.305 288.455C249.891 288.171 247.531 287.184 245.556 285.476L236.848 295.588C234.004 298.887 229.834 300.349 225.817 299.878C223.403 299.594 221.043 298.616 219.067 296.908L210.361 307.01C208.72 308.916 206.631 310.2 204.387 310.861L208.094 314.059C213.064 318.338 220.564 317.785 224.844 312.815L233.045 303.299C234.906 304.908 237.129 305.829 239.404 306.096C243.188 306.54 247.116 305.163 249.795 302.055L257.998 292.53C259.858 294.139 262.081 295.069 264.355 295.336C268.139 295.781 272.068 294.395 274.738 291.294L282.949 281.77C287.919 286.049 295.41 285.495 299.689 280.533L301.869 278.008C305.2 274.141 304.768 268.309 300.9 264.977Z" fill="#E59F6A"/>
<path d="M285.729 278.598L270.678 265.62C268.89 264.078 266.188 264.278 264.645 266.067C263.102 267.856 263.302 270.557 265.091 272.099L280.116 285.055L282.948 281.77C284.079 282.743 285.343 283.453 286.667 283.932C287.644 282.193 287.298 279.95 285.729 278.598Z" fill="#E59F6A"/>
<path d="M261.664 294.687C262.695 292.939 262.364 290.653 260.773 289.281L247.252 277.623C245.463 276.081 242.763 276.28 241.22 278.069C239.677 279.858 239.877 282.559 241.666 284.102L255.187 295.76C255.193 295.764 255.198 295.768 255.204 295.773L257.997 292.529C259.111 293.492 260.357 294.207 261.664 294.687Z" fill="#E59F6A"/>
<path d="M147.078 260.188L143.82 264.49C140.272 269.175 141.194 275.85 145.879 279.398C150.564 282.946 157.238 282.024 160.787 277.339L164.045 273.037C167.593 268.352 166.671 261.678 161.986 258.129C157.301 254.581 150.626 255.503 147.078 260.188Z" fill="#F29F5C"/>
<path d="M166.923 269.237L160.787 277.339C157.239 282.024 158.161 288.699 162.846 292.247C167.531 295.795 174.205 294.874 177.754 290.188L183.89 282.086C187.438 277.401 186.516 270.727 181.831 267.178C177.145 263.63 170.471 264.552 166.923 269.237Z" fill="#F29F5C"/>
<path d="M186.116 279.146L177.753 290.188C174.205 294.874 175.127 301.548 179.812 305.096C184.497 308.644 191.172 307.723 194.72 303.038L203.083 291.995C206.63 287.31 205.709 280.636 201.024 277.087C196.339 273.539 189.664 274.461 186.116 279.146Z" fill="#F29F5C"/>
<path d="M203.567 291.354L194.72 303.037C191.172 307.722 192.093 314.396 196.778 317.945C201.464 321.493 208.138 320.571 211.686 315.886L220.534 304.203C224.082 299.518 223.16 292.844 218.475 289.295C213.79 285.747 207.115 286.669 203.567 291.354Z" fill="#F29F5C"/>
<path d="M292.225 169.679L265.278 154.513C262.404 152.896 259.105 152.192 255.821 152.496L213.272 156.431C208.042 156.914 203.368 159.899 200.729 164.441L170.74 216.058C168.526 219.87 170.264 224.758 174.388 226.315L175.615 226.779C186.607 230.93 199.022 227.397 206.181 218.08L217.671 203.127C217.671 203.127 245.291 235.106 275.699 197.76" fill="#F29F5C"/>
<path d="M366.967 262.475L352.873 147.985C352.735 146.859 352.155 145.834 351.26 145.136C350.366 144.438 349.232 144.124 348.106 144.262L315.148 148.319C306.589 149.373 300.482 157.194 301.536 165.754L312.854 257.688C313.828 265.602 320.586 271.418 328.366 271.418C329 271.418 329.643 271.38 330.288 271.3L363.245 267.243C365.589 266.954 367.256 264.819 366.967 262.475Z" fill="#0A537E"/>
<path d="M366.967 262.475L365.42 249.907C364.719 250.937 363.599 251.673 362.265 251.837L327.717 256.09C327.041 256.173 326.368 256.213 325.703 256.213C319.885 256.213 314.615 253.11 311.7 248.32L312.853 257.687C313.827 265.601 320.586 271.418 328.365 271.418C329 271.418 329.642 271.379 330.287 271.3L363.244 267.243C365.589 266.954 367.256 264.819 366.967 262.475Z" fill="#06344F"/>
<path d="M126.851 148.319L93.8943 144.262C92.7668 144.123 91.6336 144.437 90.7394 145.135C89.8451 145.833 89.2651 146.858 89.1265 147.984L75.0325 262.475C74.7439 264.819 76.4109 266.954 78.7549 267.243L111.712 271.3C112.358 271.379 112.999 271.418 113.634 271.418C121.413 271.418 128.172 265.601 129.146 257.687L140.464 165.753C141.518 157.194 135.411 149.373 126.851 148.319Z" fill="#F26732"/>
<path d="M75.0325 262.475L76.5797 249.907C77.2812 250.937 78.4013 251.673 79.7347 251.837L114.282 256.09C114.959 256.173 115.632 256.213 116.297 256.213C122.114 256.213 127.385 253.11 130.3 248.32L129.147 257.687C128.173 265.601 121.414 271.418 113.634 271.418C113 271.418 112.358 271.379 111.713 271.3L78.7555 267.243C76.4103 266.954 74.7439 264.819 75.0325 262.475Z" fill="#BF552D"/>
<path d="M339.624 252.411C344.19 252.411 347.892 248.709 347.892 244.143C347.892 239.576 344.19 235.875 339.624 235.875C335.057 235.875 331.355 239.576 331.355 244.143C331.355 248.709 335.057 252.411 339.624 252.411Z" fill="#EBEEF2"/>
<path d="M101.913 252.411C106.479 252.411 110.181 248.709 110.181 244.143C110.181 239.576 106.479 235.875 101.913 235.875C97.3464 235.875 93.6445 239.576 93.6445 244.143C93.6445 248.709 97.3464 252.411 101.913 252.411Z" fill="#EBEEF2"/>
</g>
<path d="M263.686 101.444C264.817 100.652 264.817 99.3675 263.686 98.5755C262.555 97.7835 260.721 97.7835 259.59 98.5755L263.686 101.444ZM235.048 121.497L263.686 101.444L259.59 98.5755L230.952 118.629L235.048 121.497Z" fill="#FBBE18"/>
<path d="M161.952 103.544C160.821 102.752 160.821 101.468 161.952 100.676C163.083 99.8841 164.917 99.8841 166.048 100.676L161.952 103.544ZM190.59 123.598L161.952 103.544L166.048 100.676L194.686 120.73L190.59 123.598Z" fill="#FBBE18"/>
<path d="M215 77.1663C215 75.7855 213.881 74.6663 212.5 74.6663C211.119 74.6663 210 75.7855 210 77.1663H215ZM215 117.666V77.1663H210V117.666H215Z" fill="#FBBE18"/>
<defs>
<filter id="filter0_d" x="0" y="0" width="418" height="407.321" filterUnits="userSpaceOnUse" color-interpolation-filters="sRGB">
<feFlood flood-opacity="0" result="BackgroundImageFix"/>
<feColorMatrix in="SourceAlpha" type="matrix" values="0 0 0 0 0 0 0 0 0 0 0 0 0 0 0 0 0 0 127 0"/>
<feOffset dx="-4" dy="4"/>
<feGaussianBlur stdDeviation="5.5"/>
<feColorMatrix type="matrix" values="0 0 0 0 0 0 0 0 0 0 0 0 0 0 0 0 0 0 0.25 0"/>
<feBlend mode="normal" in2="BackgroundImageFix" result="effect1_dropShadow"/>
<feBlend mode="normal" in="SourceGraphic" in2="effect1_dropShadow" result="shape"/>
</filter>
<clipPath id="clip0">
<rect x="75" y="86.1663" width="292" height="292" fill="white"/>
</clipPath>
</defs>
</svg>