<svg width="1300" height="auto" viewBox="0 0 1112 895" fill="none" xmlns="http://www.w3.org/2000/svg" preserveAspectRatio="xMaxyMax meet" style="position:absolute;top:50%;left:50%;transform:translate(-50%, -50%);height:auto;z-index:-1">
  <path d="M58.8014 616.867C5.06588 527.607 2.29499 370.017 74.2265 267.836C146.158 165.654 413.985 105.164 424.249 283.305C445.258 647.931 597.403 483.712 588.694 680.772C584.382 778.336 422.829 883.571 325.487 807.439C228.864 731.869 150.539 769.253 58.8014 616.867Z" fill="#0A537E" fill-opacity="0.85">
    <animate repeatCount="indefinite" attributeName="d" dur="15s" values="M58.8014 616.867C5.06588 527.607 2.29499 370.017 74.2265 267.836C146.158 165.654 413.985 105.164 424.249 283.305C445.258 647.931 597.403 483.712 588.694 680.772C584.382 778.336 422.829 883.571 325.487 807.439C228.864 731.869 150.539 769.253 58.8014 616.867Z;M139.802 616.864C-5 568.746 -36.5459 245.149 155.227 267.833C347 290.518 436 211 505.25 283.302C757.88 547.066 773.567 513.082 669.695 680.769C626.5 750.5 576 846 406.487 807.436C316.721 787.014 396 702 139.802 616.864Z;M58.8014 616.867C5.06588 527.607 2.29499 370.017 74.2265 267.836C146.158 165.654 413.985 105.164 424.249 283.305C445.258 647.931 597.403 483.712 588.694 680.772C584.382 778.336 422.829 883.571 325.487 807.439C228.864 731.869 150.539 769.253 58.8014 616.867Z"></animate>
  </path>
  <path d="M646.994 742.954C520.455 770.019 331.366 711.64 236.229 588.8C141.093 465.96 168.695 133.599 385.102 191.37C828.051 309.618 688.769 70.077 920.683 157.111C1035.5 200.201 1100.89 427.542 973.773 510.003C847.593 591.854 863.021 696.747 646.994 742.954Z" fill="#F26732" fill-opacity="0.8">
    <animate repeatCount="indefinite" attributeName="d" dur="15s" values="M646.994 742.954C520.455 770.019 331.366 711.64 236.229 588.8C141.093 465.96 168.695 133.599 385.102 191.37C828.051 309.618 688.769 70.077 920.683 157.111C1035.5 200.201 1100.89 427.542 973.773 510.003C847.593 591.854 863.021 696.747 646.994 742.954Z;M713.5 646.998C586.961 674.064 522.636 689.338 427.5 566.498C332.363 443.657 690.217 462.86 673.5 239.5C655.5 -0.999985 930.5 28.9982 1001.68 157.108C1061.25 264.31 1168.18 663 1001.68 657.5C851.362 652.534 929.527 600.791 713.5 646.998Z;M646.994 742.954C520.455 770.019 331.366 711.64 236.229 588.8C141.093 465.96 168.695 133.599 385.102 191.37C828.051 309.618 688.769 70.077 920.683 157.111C1035.5 200.201 1100.89 427.542 973.773 510.003C847.593 591.854 863.021 696.747 646.994 742.954Z"></animate>
  </path>
  <path d="M460.01 99.1727C604.669 52.6674 773.402 104.028 901.089 231.925C1028.78 359.822 1071.29 754.259 813.165 719.21C284.821 647.47 322.593 726.948 191.555 714.207C59.0181 701.32 38.5302 475.55 145.242 389.655C304.811 261.213 253.07 165.701 460.01 99.1727Z" fill="white">
    <animate repeatCount="indefinite" attributeName="d" dur="15s" values="M460.01 99.1727C604.669 52.6674 773.402 104.028 901.089 231.925C1028.78 359.822 1071.29 754.259 813.165 719.21C284.821 647.47 322.593 726.948 191.555 714.207C59.0181 701.32 38.5302 475.55 145.242 389.655C304.811 261.213 253.07 165.701 460.01 99.1727Z;M577 149.5C721.658 102.995 1002.18 38.3518 982.089 231.926C962 425.5 1165.38 594.554 924 692.5C595 826 405 787.499 256 640.5C161.206 546.978 110.5 270.104 233 171.5C392.569 43.0579 370.059 216.028 577 149.5Z;M460.01 99.1727C604.669 52.6674 773.402 104.028 901.089 231.925C1028.78 359.822 1071.29 754.259 813.165 719.21C284.821 647.47 322.593 726.948 191.555 714.207C59.0181 701.32 38.5302 475.55 145.242 389.655C304.811 261.213 253.07 165.701 460.01 99.1727Z"></animate>
  </path>
</svg>