<svg width="126" height="126" viewBox="0 0 126 126" fill="none" xmlns="http://www.w3.org/2000/svg">
<path d="M62.6481 117.785C61.6224 117.785 60.7774 116.969 60.7476 115.937C60.7178 114.887 61.5446 114.013 62.5943 113.983C63.646 113.935 64.5294 114.749 64.5756 115.799C64.6227 116.848 63.8075 117.736 62.7577 117.782L62.7029 117.784C62.6847 117.785 62.6664 117.785 62.6481 117.785ZM55.0019 117.498C54.9269 117.498 54.8529 117.495 54.777 117.486L54.7722 117.485C53.7272 117.38 52.9707 116.45 53.0755 115.404C53.1803 114.359 54.1185 113.598 55.1625 113.702L55.2211 113.708C56.2641 113.831 57.0101 114.776 56.887 115.819C56.7736 116.787 55.9527 117.498 55.0019 117.498ZM70.277 116.912C69.3869 116.912 68.5919 116.284 68.414 115.378C68.2102 114.347 68.8812 113.347 69.9117 113.145L69.9473 113.138C70.9788 112.941 71.9747 113.618 72.1718 114.649C72.3688 115.68 71.693 116.676 70.6616 116.874L70.6471 116.876C70.5222 116.9 70.3991 116.912 70.277 116.912ZM47.4576 116.05C47.2923 116.05 47.124 116.028 46.9558 115.982L46.9452 115.979C45.9311 115.709 45.3254 114.668 45.5946 113.654C45.8638 112.639 46.9039 112.034 47.9181 112.303L47.9575 112.313C48.9707 112.59 49.5677 113.635 49.2908 114.648C49.0601 115.494 48.2939 116.05 47.4576 116.05ZM77.6868 114.881C76.9091 114.881 76.1804 114.402 75.8988 113.629C75.5402 112.642 76.0497 111.551 77.036 111.192L77.0677 111.182C78.055 110.827 79.1441 111.339 79.4998 112.327C79.8555 113.316 79.3412 114.405 78.353 114.761L78.3366 114.766C78.1213 114.844 77.9021 114.881 77.6868 114.881ZM40.2152 113.456C39.9556 113.456 39.6922 113.402 39.4394 113.288L39.4134 113.276C38.4569 112.843 38.033 111.716 38.4665 110.76C38.9001 109.803 40.0258 109.379 40.9832 109.813C41.9407 110.245 42.3762 111.376 41.9445 112.333C41.6263 113.038 40.9381 113.456 40.2152 113.456ZM84.6908 111.738C84.0102 111.738 83.3537 111.373 83.0114 110.732C82.5164 109.805 82.8672 108.652 83.7939 108.158C84.7139 107.653 85.8704 107.988 86.377 108.908C86.8826 109.828 86.5481 110.985 85.6271 111.49L85.5839 111.514C85.2984 111.666 84.9927 111.738 84.6908 111.738ZM101.961 94.7404L101.973 94.7491L101.772 94.6059L101.961 94.7404ZM14.1859 86.4521C13.4352 86.4521 12.7238 86.0041 12.4229 85.2658L12.4181 85.2524C12.0172 84.2815 12.4796 83.1692 13.4496 82.7693C14.4205 82.3685 15.5327 82.8309 15.9326 83.8008L15.9461 83.8345C16.3421 84.8073 15.873 85.9166 14.9002 86.3117C14.6666 86.4069 14.4234 86.4521 14.1859 86.4521ZM108.571 82.803C108.372 82.803 108.169 82.7713 107.969 82.7049C106.98 82.3752 106.441 81.3101 106.759 80.319C107.07 79.3202 108.129 78.7559 109.13 79.0597C110.135 79.3654 110.702 80.4238 110.398 81.4274L110.374 81.5023C110.109 82.2993 109.367 82.803 108.571 82.803ZM11.8605 79.1318C11.0002 79.1318 10.2206 78.5444 10.012 77.6715L10.0062 77.6465C9.76297 76.6247 10.3926 75.599 11.4145 75.3548C12.4364 75.1106 13.4621 75.7412 13.7053 76.7631L13.711 76.7881C13.9552 77.809 13.3246 78.8347 12.3037 79.0789C12.1547 79.1145 12.0067 79.1318 11.8605 79.1318ZM110.319 75.324C110.21 75.324 110.099 75.3144 109.987 75.2942C108.96 75.1135 108.272 74.1387 108.441 73.113C108.6 72.0796 109.565 71.3663 110.599 71.5182C111.637 71.672 112.355 72.6343 112.202 73.6735L112.19 73.7523C112.027 74.6742 111.225 75.324 110.319 75.324ZM10.6868 71.5375C9.71106 71.5375 8.88146 70.7934 8.79494 69.8042L8.78917 69.7254C8.72765 68.6766 9.52745 67.7778 10.5762 67.7153C11.6154 67.6519 12.5123 68.443 12.5844 69.4812C12.668 70.5233 11.8951 71.4413 10.8521 71.5307C10.7964 71.5355 10.7416 71.5375 10.6868 71.5375ZM110.902 67.6653C109.851 67.6653 109 66.8146 109 65.7639V65.7389C109 65.7254 109 65.712 109 65.6995C109 65.6831 109 65.6658 109 65.6495V65.6245C109 64.5738 109.851 63.7221 110.902 63.7221C111.951 63.7221 112.803 64.5738 112.803 65.6245V65.6495C112.803 65.6629 112.803 65.6764 112.802 65.6889C112.803 65.7052 112.803 65.7216 112.803 65.7389V65.7639C112.803 66.8146 111.952 67.6653 110.902 67.6653ZM10.682 63.8605C10.6272 63.8605 10.5714 63.8576 10.5157 63.8528C9.47074 63.7624 8.69689 62.8434 8.78533 61.7995C8.85839 60.7612 9.74663 59.9701 10.7935 60.0355C11.8423 60.097 12.6421 60.9968 12.5806 62.0446L12.5738 62.1234C12.4883 63.1136 11.6577 63.8605 10.682 63.8605ZM110.305 59.8941C109.399 59.8941 108.597 59.2453 108.435 58.3224L108.422 58.2436C108.27 57.2044 108.988 56.2383 110.027 56.0855C111.06 55.9326 112.028 56.6488 112.183 57.6851C112.351 58.7098 111.664 59.6827 110.637 59.8643C110.526 59.8845 110.414 59.8941 110.305 59.8941ZM110.624 57.9196L110.303 57.9667L110.624 57.9196ZM11.8355 56.2681C11.6894 56.2681 11.5404 56.2508 11.3924 56.2152C10.3724 55.972 9.74182 54.9482 9.98311 53.9283C10.2081 52.9141 11.2088 52.2662 12.2287 52.4796C13.2564 52.6949 13.9158 53.7024 13.7005 54.73L13.6832 54.8079C13.4755 55.6808 12.6959 56.2681 11.8355 56.2681ZM108.56 52.4267C107.76 52.4267 107.013 51.9153 106.747 51.1165L106.726 51.0502C106.416 50.0466 106.98 48.9824 107.984 48.6738C108.989 48.3643 110.051 48.9276 110.361 49.9322L110.361 49.935C110.693 50.9319 110.152 51.998 109.155 52.3297C108.959 52.396 108.758 52.4267 108.56 52.4267ZM14.1408 48.9363C13.9023 48.9363 13.6601 48.8911 13.4255 48.7959C12.4527 48.4008 11.9845 47.2915 12.3796 46.3186L12.3893 46.2955C12.7844 45.3227 13.8927 44.8536 14.8665 45.2487C15.8394 45.6438 16.3075 46.7531 15.9124 47.726L15.9028 47.75C15.6029 48.4883 14.8915 48.9363 14.1408 48.9363ZM105.676 45.3044C104.984 45.3044 104.315 44.9247 103.977 44.2691L103.948 44.2134C103.484 43.2703 103.873 42.1312 104.816 41.6678C105.758 41.2045 106.897 41.5929 107.361 42.5349L107.362 42.5388C107.845 43.4712 107.475 44.6113 106.541 45.093C106.264 45.2362 105.968 45.3044 105.676 45.3044ZM17.5457 42.0475C17.2083 42.0475 16.866 41.9581 16.5575 41.7688C15.6625 41.2237 15.3789 40.0576 15.9201 39.1627C16.444 38.2677 17.5928 37.9562 18.4983 38.4696C19.4116 38.9877 19.7327 40.148 19.2155 41.0613C19.2011 41.0862 19.1857 41.1112 19.1703 41.1362C18.8127 41.7236 18.1869 42.0475 17.5457 42.0475ZM101.728 38.708C101.12 38.708 100.521 38.4157 100.153 37.8745C99.543 37.0199 99.7458 35.8404 100.601 35.23C101.455 34.6196 102.649 34.8262 103.259 35.6808L103.3 35.7385C103.889 36.6075 103.663 37.7899 102.794 38.3802C102.467 38.6022 102.096 38.708 101.728 38.708ZM21.9638 35.7616C21.5351 35.7616 21.1054 35.6174 20.7497 35.3232C19.9422 34.6522 19.8307 33.4535 20.5017 32.645L20.518 32.6258C21.189 31.8174 22.3868 31.7068 23.1953 32.3768C24.0037 33.0478 24.1152 34.2466 23.4442 35.055L23.4279 35.0743C23.052 35.528 22.5099 35.7616 21.9638 35.7616ZM96.8292 32.7921C96.3293 32.7921 95.8304 32.597 95.4574 32.2076C94.722 31.4578 94.7326 30.2514 95.4834 29.516C96.2322 28.7816 97.4348 28.7921 98.1693 29.5419L98.201 29.5737C98.9287 30.3312 98.9037 31.5357 98.1462 32.2624C97.7771 32.6172 97.3031 32.7921 96.8292 32.7921ZM27.2856 30.2206C26.7588 30.2206 26.2359 30.0043 25.86 29.5794C25.164 28.7931 25.238 27.5915 26.0244 26.8955L26.0321 26.8888C26.8136 26.1899 28.0162 26.2533 28.717 27.0349C29.4168 27.8154 29.3553 29.0142 28.5757 29.7159L28.5449 29.7438C28.1825 30.0639 27.7326 30.2206 27.2856 30.2206ZM91.0873 27.6876C90.6971 27.6876 90.3048 27.5684 89.9655 27.3204L89.9011 27.2713C89.0725 26.6263 88.9225 25.4324 89.5675 24.6028C90.2116 23.7751 91.4027 23.6251 92.2313 24.2663C93.0619 24.8902 93.2387 26.0688 92.6235 26.9089C92.2505 27.4184 91.6728 27.6876 91.0873 27.6876ZM91.2585 25.5266L91.0681 25.7708L91.2585 25.5266ZM33.3841 25.5525C32.7564 25.5525 32.1421 25.242 31.7797 24.6739C31.2154 23.7895 31.474 22.6167 32.3555 22.0505C33.2226 21.4776 34.3925 21.7073 34.977 22.5696C35.5672 23.4386 35.3404 24.621 34.4714 25.2103L34.405 25.2545C34.0888 25.4564 33.735 25.5525 33.3841 25.5525ZM84.6322 23.5136C84.3323 23.5136 84.0275 23.4425 83.7439 23.2916L83.6988 23.2666C82.7788 22.7609 82.4433 21.6045 82.949 20.6845C83.4546 19.7645 84.611 19.429 85.531 19.9347L85.5368 19.9376C86.4548 20.4384 86.8019 21.591 86.3058 22.5119C85.9617 23.1502 85.308 23.5136 84.6322 23.5136ZM40.1219 21.8688C39.3971 21.8688 38.704 21.4526 38.3868 20.7499C37.9542 19.7934 38.3791 18.6677 39.3356 18.2351L39.3798 18.2159C40.3411 17.7939 41.462 18.2332 41.884 19.1954C42.3041 20.1577 41.8657 21.2786 40.9034 21.6996C40.6497 21.814 40.3834 21.8688 40.1219 21.8688Z" fill="#A7C7D3"/>
<path d="M75.4326 102.652L46.804 74.0235C45.0092 72.2297 45.0073 69.3265 46.7992 67.5356C47.5067 66.8281 48.3911 66.3994 49.3101 66.2542C50.7127 66.0283 52.2017 66.4561 53.287 67.5414L45.9148 60.1692C45.0189 59.2732 44.569 58.0985 44.569 56.9267C44.569 56.6825 44.5882 56.4374 44.6276 56.1932C44.7747 55.2723 45.2015 54.3898 45.91 53.6813C46.6108 52.9805 47.4798 52.5556 48.3873 52.4047C49.6225 52.199 50.9241 52.4999 51.9614 53.3083L49.1563 50.5032C48.2594 49.6064 47.8095 48.4288 47.8095 47.256C47.8076 47.007 47.8297 46.7561 47.871 46.511C48.0181 45.5958 48.444 44.7181 49.1486 44.0135C49.8571 43.305 50.7405 42.8763 51.6644 42.7311C53.0659 42.5052 54.556 42.9339 55.6403 44.0183L58.853 47.231C57.7706 46.1485 57.3399 44.6566 57.5658 43.255C57.711 42.3351 58.1378 41.4526 58.8482 40.7431C60.6372 38.9541 63.5432 38.9561 65.336 40.7489L83.9411 59.354L83.993 59.28C84.936 58.3369 86.0473 57.6669 87.2326 57.267C90.1578 56.2807 93.5253 56.9546 95.8593 59.2896L104.534 67.9644C106.202 69.6313 107.137 71.8903 107.141 74.2455L107.146 79.673C107.148 82.209 108.157 84.642 109.954 86.4387L111.888 88.3728L89.7618 110.499L87.2893 108.027C85.6455 106.383 83.4585 105.393 81.1408 105.241C78.9875 105.1 76.9601 104.18 75.4326 102.652Z" fill="#FECBAA"/>
<path d="M88.3234 111.936L113.438 86.821C114.266 85.9933 115.607 85.9933 116.435 86.821L125.379 95.7649C126.206 96.5926 126.206 97.9346 125.379 98.7613L100.265 123.876C99.437 124.704 98.0951 124.704 97.2683 123.876L88.3234 114.932C87.4967 114.105 87.4967 112.763 88.3234 111.936Z" fill="#FDD559"/>
<path d="M114.107 98.0943C114.85 98.8374 116.052 98.8383 116.793 98.0972C117.535 97.356 117.534 96.1525 116.792 95.4103C116.048 94.6672 114.846 94.6663 114.105 95.4074C113.364 96.1496 113.365 97.3522 114.107 98.0943Z" fill="#FF8812"/>
<path d="M90.347 65.759L83.9409 59.3538L83.9928 59.2798C84.9359 58.3368 86.0471 57.6667 87.2324 57.2668L93.0358 63.0702C93.7779 63.8124 93.7779 65.0169 93.0358 65.759C92.2918 66.5031 91.0892 66.5011 90.347 65.759Z" fill="#FFAE85"/>
<path d="M50.5673 102.655L79.1959 74.0261C80.9907 72.2314 80.9926 69.3292 79.2017 67.5383C78.4932 66.8298 77.6098 66.4011 76.6898 66.2559C75.2873 66.03 73.7982 66.4588 72.7129 67.5431L80.0851 60.1718C80.9811 59.2759 81.431 58.1012 81.431 56.9284C81.431 56.6852 81.4117 56.4391 81.3723 56.1959C81.2252 55.274 80.7984 54.3925 80.0899 53.684C79.3891 52.9832 78.5201 52.5583 77.6127 52.4074C76.3774 52.2017 75.0758 52.5025 74.0385 53.311L76.8436 50.505C77.7405 49.609 78.1904 48.4314 78.1904 47.2586C78.1923 47.0087 78.1702 46.7578 78.1289 46.5127C77.9828 45.5985 77.5559 44.7198 76.8513 44.0152C76.1428 43.3077 75.2594 42.8789 74.3356 42.7338C72.934 42.5079 71.444 42.9357 70.3596 44.021L67.1469 47.2336C68.2294 46.1503 68.66 44.6593 68.4341 43.2567C68.289 42.3377 67.8622 41.4552 67.1517 40.7448C65.3628 38.9559 62.4567 38.9578 60.6639 40.7506L42.0588 59.3557L42.0069 59.2826C41.0639 58.3396 39.9526 57.6696 38.7673 57.2697C35.8411 56.2834 32.4746 56.9572 30.1406 59.2913L21.4658 67.967C19.7979 69.6339 18.8626 71.893 18.8587 74.2482L18.853 79.6748C18.852 82.2116 17.8426 84.6447 16.046 86.4414L14.1118 88.3755L36.2381 110.502L38.7106 108.029C40.3544 106.386 42.5414 105.395 44.8591 105.244C47.0124 105.102 49.0398 104.182 50.5673 102.655Z" fill="#FECBAA"/>
<path d="M37.6764 111.938L12.5614 86.8239C11.7337 85.9962 10.3927 85.9962 9.56497 86.8239L0.621006 95.7679C-0.206677 96.5955 -0.206677 97.9366 0.621006 98.7642L25.7351 123.879C26.5627 124.707 27.9047 124.707 28.7324 123.879L37.6764 114.935C38.5041 114.108 38.5041 112.766 37.6764 111.938Z" fill="#FF84A7"/>
<path d="M29.1043 115.307C29.8474 114.563 29.8483 113.361 29.1072 112.62C28.366 111.878 27.1625 111.879 26.4203 112.622C25.6773 113.364 25.6763 114.567 26.4175 115.308C27.1596 116.05 28.3622 116.049 29.1043 115.307Z" fill="#EF6085"/>
<path d="M35.6538 65.7619L42.059 59.3558L42.007 59.2827C41.064 58.3397 39.9527 57.6697 38.7675 57.2698L32.9641 63.0722C32.2219 63.8143 32.2219 65.0198 32.9641 65.7619C33.7081 66.506 34.9107 66.5041 35.6538 65.7619Z" fill="#FFAE85"/>
<path d="M81.31 34.0436V74.5308C81.31 77.0686 79.2596 79.122 76.7265 79.122C75.7248 79.122 74.7972 78.8 74.0435 78.252C72.8928 77.4205 72.1421 76.0641 72.1421 74.5308V84.9561C72.1421 86.2231 71.6297 87.3719 70.801 88.2005C70.629 88.3736 70.4406 88.5332 70.2406 88.6774C69.485 89.2253 68.5602 89.5473 67.5586 89.5473C66.5675 89.5473 65.6513 89.233 64.9035 88.6985C63.8845 87.9708 63.177 86.8374 63.0155 85.531V89.4993C63.0155 90.7672 62.5002 91.9179 61.6716 92.7466C61.4966 92.9244 61.3034 93.0869 61.1015 93.231C60.3507 93.7742 59.4279 94.0933 58.431 94.0933C57.4303 94.0933 56.5017 93.7713 55.7461 93.2214C54.5954 92.3899 53.8446 91.0335 53.8446 89.4993V84.9561C53.8446 86.4875 53.0948 87.8458 51.9432 88.6774C51.1905 89.2253 50.2647 89.5473 49.2611 89.5473C46.73 89.5473 44.6767 87.4911 44.6767 84.9561V58.6443L44.5882 58.6597C43.2549 58.6597 41.9946 58.3473 40.8737 57.7926C38.1081 56.4208 36.2037 53.5638 36.2037 50.2627V37.9936C36.2037 35.6365 37.1391 33.3774 38.8021 31.7086L42.6358 27.8682C44.4286 26.0724 45.4351 23.6394 45.4351 21.0987V18.3628H76.7256V21.8591C76.7256 24.1835 77.5725 26.4301 79.1038 28.1767C80.5266 29.7994 81.31 31.8835 81.31 34.0436Z" fill="#FEDFC5"/>
<path d="M79.2019 67.5383C78.4935 66.8298 77.61 66.402 76.69 66.2559C75.2875 66.03 73.7984 66.4588 72.7131 67.5441L80.0854 60.1718C80.9813 59.2759 81.4322 58.1012 81.4322 56.9293C81.4322 56.6852 81.412 56.4391 81.3726 56.1959C81.2255 55.274 80.7996 54.3925 80.0911 53.684C79.3904 52.9832 78.5204 52.5583 77.6139 52.4074C76.3786 52.2017 75.077 52.5025 74.0388 53.311L76.8448 50.505C77.7408 49.609 78.1906 48.4314 78.1906 47.2586C78.1926 47.0097 78.1714 46.7588 78.1301 46.5127C77.983 45.5985 77.5562 44.7198 76.8515 44.0152C76.144 43.3077 75.2596 42.8789 74.3368 42.7338C72.9352 42.5079 71.4442 42.9366 70.3599 44.021L67.1472 47.2336C68.2296 46.1503 68.6603 44.6593 68.4344 43.2567C68.2892 42.3377 67.8624 41.4552 67.153 40.7448C65.363 38.9559 62.457 38.9578 60.6642 40.7506L42.0591 59.3557L42.0072 59.2826C41.0641 58.3396 39.9529 57.6696 38.7676 57.2697C37.3641 56.7967 35.8596 56.7092 34.4148 57.0005C35.578 58.7587 37.2045 60.217 39.1867 61.2004C39.7366 61.4725 40.2999 61.7013 40.8748 61.8858V84.9562C40.8748 89.5848 44.6373 93.3503 49.2612 93.3503C49.8178 93.3503 50.3657 93.2964 50.8992 93.1907C51.4962 94.4106 52.3864 95.4844 53.5082 96.2947C54.2042 96.8023 54.9636 97.1907 55.7625 97.4598L79.1962 74.0261C80.9909 72.2314 80.9928 69.3292 79.2019 67.5383Z" fill="#FFAE85"/>
<path d="M85.1109 74.531V58.3388C84.7177 58.6147 84.3428 58.9291 83.991 59.28L83.9391 59.354L65.334 40.7489C63.5411 38.9561 60.6351 38.9541 58.8461 40.7431C58.1357 41.4526 57.7089 42.3351 57.5638 43.255C57.3379 44.6566 57.7685 46.1485 58.8509 47.231L55.6383 44.0183C54.5539 42.9339 53.0639 42.5052 51.6623 42.7311C50.7385 42.8763 49.8551 43.305 49.1466 44.0135C48.4419 44.7181 48.0151 45.5958 47.868 46.511C47.8277 46.7561 47.8056 47.007 47.8075 47.256C47.8075 48.4288 48.2574 49.6064 49.1543 50.5032L51.9594 53.3083C50.9211 52.4999 49.6205 52.199 48.3852 52.4047C47.4778 52.5556 46.6087 52.9805 45.9079 53.6813C45.1995 54.3898 44.7726 55.2723 44.6256 56.1932C44.5862 56.4374 44.566 56.6825 44.5669 56.9267C44.566 58.0995 45.0168 59.2732 45.9128 60.1692L53.285 67.5414C52.2006 66.457 50.7106 66.0283 49.309 66.2542C48.3891 66.3994 47.5047 66.8281 46.7972 67.5356C45.0062 69.3275 45.0082 72.2297 46.802 74.0244L65.9809 93.2024C66.4962 93.3005 67.023 93.3505 67.5565 93.3505C69.334 93.3505 71.0336 92.7997 72.464 91.7624C72.8283 91.499 73.1734 91.2058 73.4887 90.8905C75.072 89.3072 75.9439 87.2001 75.9439 84.9564V82.8896C76.2015 82.9136 76.463 82.9251 76.7245 82.9251C81.3483 82.9251 85.1109 79.1597 85.1109 74.531Z" fill="#FFAE85"/>
<path d="M81.31 34.0436V74.5308C81.31 77.0686 79.2596 79.122 76.7265 79.122C76.6583 79.122 76.5843 79.122 76.5112 79.1172C75.5951 79.0739 74.7462 78.7625 74.0493 78.2549C74.0464 78.2549 74.0464 78.252 74.0435 78.252C72.8928 77.4205 72.1421 76.0641 72.1421 74.5308V84.9561C72.1421 86.2231 71.6297 87.3719 70.801 88.2005C70.629 88.3736 70.4406 88.5332 70.2406 88.6774C69.485 89.2253 68.5602 89.5473 67.5586 89.5473C66.5675 89.5473 65.6513 89.233 64.9035 88.6985C63.8845 87.9708 63.177 86.8374 63.0155 85.531V89.4993C63.0155 90.7672 62.5002 91.9179 61.6716 92.7466C61.4966 92.9244 61.3034 93.0869 61.1015 93.231C60.3507 93.7742 59.4279 94.0933 58.431 94.0933C57.4303 94.0933 56.5017 93.7713 55.7461 93.2214C54.5954 92.3899 53.8446 91.0335 53.8446 89.4993V84.9561C53.8446 86.4875 53.0948 87.8458 51.9432 88.6774C51.1905 89.2253 50.2647 89.5473 49.2611 89.5473C46.73 89.5473 44.6767 87.4911 44.6767 84.9561V58.6443L44.5882 58.6597C43.2549 58.6597 41.9946 58.3473 40.8737 57.7926C38.1081 56.4208 36.2037 53.5638 36.2037 50.2627V37.9936C36.2037 35.6365 37.1391 33.3774 38.8021 31.7086L42.6358 27.8682C43.7442 26.7579 44.5527 25.4034 45.0064 23.9278C45.2909 23.0155 45.4351 22.0542 45.4351 21.0987V18.3628H76.7256V21.8591C76.7256 22.6425 76.8102 23.4692 77.0274 24.2239C77.3927 25.6774 78.1031 27.0338 79.1038 28.1767C80.5141 29.7869 81.31 31.8989 81.31 34.0436Z" fill="#FEDFC5"/>
<path d="M81.31 34.0436V74.5308C81.31 77.0687 79.2595 79.122 76.7265 79.122C76.6582 79.122 76.5842 79.122 76.5111 79.1172C75.595 79.0739 74.7462 78.7625 74.0492 78.2549L74.1271 39.2414C74.1271 39.0058 74.0742 38.6328 73.9752 38.1589C72.2257 29.637 65.0332 23.9278 56.3343 23.9278H45.0063C45.2909 23.0145 45.4351 22.0542 45.4351 21.0987V18.3628H76.7255V21.8591C76.7255 22.6425 76.8101 23.4692 77.0274 24.2239C77.3927 25.6774 78.1031 27.0338 79.1038 28.1767C80.514 29.7869 81.31 31.8989 81.31 34.0436Z" fill="#FECBAA"/>
<path d="M78.7596 18.3638H43.2414C42.0715 18.3638 41.1227 17.415 41.1227 16.2451V3.59528C41.1227 2.42537 42.0715 1.47656 43.2414 1.47656H78.7596C79.9295 1.47656 80.8784 2.42537 80.8784 3.59528V16.2451C80.8784 17.415 79.9295 18.3638 78.7596 18.3638Z" fill="#83D9FF"/>
<path d="M51.1606 9.92075C51.1606 8.87004 50.3108 8.01929 49.262 8.01929C48.2132 8.01929 47.3634 8.87004 47.3634 9.92075C47.3634 10.9705 48.2132 11.8222 49.262 11.8222C50.3108 11.8222 51.1606 10.9705 51.1606 9.92075Z" fill="#5186FF"/>
<path d="M74.0444 53.3429V78.2522C72.8927 77.4206 72.1419 76.0642 72.1419 74.53V84.9553C72.1419 86.2233 71.6305 87.3721 70.8009 88.2007C70.6288 88.3737 70.4414 88.5333 70.2405 88.6775V53.3429C70.2405 52.2931 71.0932 51.4414 72.1419 51.4414C73.1917 51.4414 74.0444 52.2931 74.0444 53.3429Z" fill="#FECBAA"/>
<path d="M64.9044 53.3429V88.6977C63.8844 87.97 63.1779 86.8366 63.0154 85.5312V89.4994C63.0154 90.7664 62.5011 91.9181 61.6715 92.7467C61.4965 92.9245 61.3043 93.086 61.1014 93.2312V53.3429C61.1014 52.2931 61.9532 51.4414 63.0029 51.4414C64.0526 51.4414 64.9044 52.2931 64.9044 53.3429Z" fill="#FECBAA"/>
<path d="M55.746 53.3429V93.2206C54.5954 92.3891 53.8446 91.0327 53.8446 89.4994V84.9553C53.8446 86.4867 53.0948 87.846 51.9431 88.6775V53.3429C51.9431 52.2931 52.7958 51.4414 53.8446 51.4414C54.8972 51.4414 55.746 52.2931 55.746 53.3429Z" fill="#FECBAA"/>
<path d="M44.6776 49.5851V58.6444L44.5882 58.6588C43.2548 58.6588 41.9946 58.3473 40.8746 57.7927V49.5851C40.8746 48.5353 41.7263 47.6836 42.7761 47.6836C43.8278 47.6836 44.6776 48.5353 44.6776 49.5851Z" fill="#FECBAA"/>
</svg>
