<svg width="32" height="33" viewBox="0 0 32 33" fill="none" xmlns="http://www.w3.org/2000/svg">
<g clip-path="url(#clip0)">
<path fill-rule="evenodd" clip-rule="evenodd" d="M15.9996 4.125C15.9997 4.125 15.9998 4.125 15.9998 5.5L15.9998 6.875L15.8992 6.87515C15.8324 6.8753 15.7339 6.87561 15.6074 6.87622C15.3544 6.87744 14.9898 6.8799 14.5449 6.8848C13.6545 6.89463 12.4451 6.91426 11.1661 6.95346C9.88489 6.99272 8.54459 7.05129 7.38928 7.13819C6.20513 7.22726 5.32528 7.33921 4.88692 7.45827C4.48866 7.57625 4.12722 7.79973 3.83864 8.10654C3.55713 8.40582 3.35458 8.77414 3.24993 9.17641C2.85055 11.4776 2.65523 13.8116 2.66644 16.1495L2.66651 16.1649C2.65222 18.5123 2.84606 20.8561 3.24575 23.167C3.36125 23.5488 3.56583 23.8959 3.84189 24.1776C4.1311 24.4728 4.48904 24.6863 4.8813 24.7977C5.31773 24.9173 6.20005 25.0299 7.38928 25.1193C8.54459 25.2062 9.88489 25.2648 11.1661 25.304C12.4451 25.3432 13.6545 25.3629 14.5449 25.3727C14.9898 25.3776 15.3544 25.3801 15.6074 25.3813C15.7339 25.3819 15.8324 25.3822 15.8992 25.3823H16.1004C16.1671 25.3822 16.2657 25.3819 16.3922 25.3813C16.6452 25.3801 17.0098 25.3776 17.4547 25.3727C18.345 25.3629 19.5545 25.3432 20.8335 25.304C22.1147 25.2648 23.455 25.2062 24.6103 25.1193C25.7944 25.0302 26.6743 24.9183 27.1127 24.7992C27.5109 24.6813 27.8723 24.4578 28.1609 24.151C28.4424 23.8517 28.645 23.4834 28.7496 23.0811C29.1459 20.7973 29.3412 18.4813 29.3331 16.1612L29.3331 16.1476C29.3474 13.792 29.1522 11.4401 28.7496 9.12143C28.645 8.71915 28.4424 8.35083 28.1609 8.05154C27.8757 7.74824 27.5192 7.52638 27.1263 7.40736C26.6731 7.2974 25.79 7.19603 24.6187 7.11559C23.461 7.03609 22.1189 6.98255 20.837 6.94668C19.557 6.91087 18.3468 6.89293 17.4559 6.88396C17.0108 6.87947 16.6459 6.87723 16.3927 6.87612L16.1007 6.87514L15.9998 6.875L15.9998 5.5C15.9998 4.125 15.9997 4.125 15.9996 4.125L16.1061 4.12514C16.1748 4.12529 16.2754 4.12557 16.4041 4.12614C16.6616 4.12728 17.0313 4.12955 17.482 4.13409C18.3828 4.14316 19.6093 4.16132 20.9093 4.19769C22.2073 4.23401 23.5885 4.28875 24.7959 4.37167C25.9687 4.45222 27.0818 4.56523 27.7827 4.74175C27.7984 4.74568 27.8139 4.74991 27.8294 4.75443C28.6829 5.00343 29.4575 5.48029 30.075 6.13683C30.6926 6.79337 31.1312 7.60634 31.3466 8.49364L30.0531 8.8275L31.3653 8.58342C31.8025 11.0828 32.0149 13.6184 31.9998 16.1581C32.0081 18.6597 31.7957 21.157 31.3653 23.619C31.36 23.6491 31.3538 23.6791 31.3466 23.7089C31.1312 24.5962 30.6926 25.4091 30.075 26.0657C29.4575 26.7222 28.6829 27.1991 27.8294 27.4481L27.8109 27.4533C27.0994 27.6496 25.9767 27.7738 24.8043 27.862C23.5946 27.953 22.2116 28.013 20.9127 28.0528C19.6118 28.0927 18.3845 28.1126 17.4832 28.1225C17.0323 28.1275 16.6623 28.13 16.4047 28.1312C16.2759 28.1319 16.1751 28.1322 16.1063 28.1323L16.0004 28.1325L15.8933 28.1323C15.8245 28.1322 15.7237 28.1319 15.5949 28.1312C15.3373 28.13 14.9673 28.1275 14.5164 28.1225C13.615 28.1126 12.3878 28.0927 11.0868 28.0528C9.78802 28.013 8.40498 27.953 7.19529 27.862C6.02289 27.7738 4.90017 27.6496 4.18864 27.4533L4.18122 27.4513C3.34513 27.2154 2.58217 26.761 1.96607 26.1322C1.34996 25.5034 0.90153 24.7213 0.664107 23.8616C0.652055 23.818 0.642106 23.7737 0.634295 23.7291C0.197176 21.23 -0.0152349 18.6947 -0.00023436 16.1553C-0.0118534 13.635 0.20054 11.1188 0.634285 8.63848C0.639557 8.60832 0.645806 8.57836 0.65302 8.54864C0.868377 7.66134 1.30698 6.84837 1.92453 6.19183C2.54207 5.53529 3.31669 5.05843 4.17014 4.80943L4.18864 4.80418C4.90017 4.60794 6.02289 4.48366 7.19529 4.39548C8.40498 4.30449 9.78801 4.24447 11.0868 4.20467C12.3878 4.1648 13.615 4.1449 14.5164 4.13496C14.9673 4.12999 15.3373 4.1275 15.5949 4.12625C15.7237 4.12563 15.8245 4.12531 15.8933 4.12516L15.9996 4.125Z" fill="#0A537E"/>
<path fill-rule="evenodd" clip-rule="evenodd" d="M12.3294 10.4716C12.7398 10.2254 13.2462 10.2229 13.659 10.4649L21.3256 14.9612C21.7424 15.2056 21.9998 15.662 21.9998 16.1564C21.9998 16.6508 21.7424 17.1072 21.3256 17.3516L13.659 21.8479C13.2462 22.0899 12.7398 22.0874 12.3294 21.8412C11.919 21.595 11.6665 21.1423 11.6665 20.6527V11.6602C11.6665 11.1705 11.919 10.7178 12.3294 10.4716ZM14.3332 14.0239V18.2889L17.9693 16.1564L14.3332 14.0239Z" fill="#0A537E"/>
</g>
<defs>
<clipPath id="clip0">
<rect width="32" height="33" fill="white"/>
</clipPath>
</defs>
</svg>
